<svg xmlns="http://www.w3.org/2000/svg" width="271.163" height="82.451" viewBox="0 0 271.163 82.451">
  <g id="Group_5280" data-name="Group 5280" transform="translate(0 0)">
    <path id="Path_25620" data-name="Path 25620" d="M11.433,0H256.574c19.205,0,12.441,17.983,12.441,40.166s4.507,40.166-14.7,40.166H11.433C-6.079,80.333.122,62.35.122,40.166S-5.516,0,11.433,0Z" transform="translate(0.993 0.863)" fill="#fff"/>
    <g id="Group_3836" data-name="Group 3836" transform="translate(0 0)">
      <g id="Group_3829" data-name="Group 3829">
        <g id="Group_3828" data-name="Group 3828">
          <g id="Group_3827" data-name="Group 3827">
            <path id="Path_25596" data-name="Path 25596" d="M2425.646-568.78a8.63,8.63,0,0,1,8.62,8.62v61.491a8.63,8.63,0,0,1-8.62,8.621H2175.482a8.631,8.631,0,0,1-8.621-8.621V-560.16a8.63,8.63,0,0,1,8.621-8.62h250.164m0-1.86H2175.482A10.48,10.48,0,0,0,2165-560.16v61.491a10.48,10.48,0,0,0,10.48,10.481h250.164a10.48,10.48,0,0,0,10.479-10.481V-560.16a10.48,10.48,0,0,0-10.479-10.48Z" transform="translate(-2165.002 570.64)"/>
          </g>
        </g>
      </g>
      <g id="Group_3832" data-name="Group 3832" transform="translate(26.353 14.565)">
        <g id="Group_3830" data-name="Group 3830" transform="translate(0 12.336)">
          <path id="Path_25597" data-name="Path 25597" d="M2308.912-419.189c-4.4,7.632-1.6,19.215,3.261,26.237,2.428,3.512,4.886,6.663,8.253,6.663.063,0,.127,0,.192,0a10.181,10.181,0,0,0,3.83-1.021,10.489,10.489,0,0,1,4.537-1.075,9.865,9.865,0,0,1,4.318,1.04,9.143,9.143,0,0,0,4.137.992c3.792-.07,6.121-3.471,8.175-6.472a28.691,28.691,0,0,0,3.582-7.336l.014-.047a.427.427,0,0,0-.227-.523l-.031-.013a10.87,10.87,0,0,1-6.587-9.954,11.189,11.189,0,0,1,5.287-9.354l.041-.026a.425.425,0,0,0,.188-.273.426.426,0,0,0-.066-.325,12.3,12.3,0,0,0-9.678-5.255,8.43,8.43,0,0,0-.844-.042,16.866,16.866,0,0,0-6.075,1.517,9.756,9.756,0,0,1-2.909.869,9.52,9.52,0,0,1-3.01-.88,14.586,14.586,0,0,0-5.305-1.348l-.134,0A13.007,13.007,0,0,0,2308.912-419.189Z" transform="translate(-2306.718 425.978)"/>
        </g>
        <g id="Group_3831" data-name="Group 3831" transform="translate(20.696)">
          <path id="Path_25598" data-name="Path 25598" d="M2428.741-492.314a11.875,11.875,0,0,0-7.841,4.023,11.125,11.125,0,0,0-2.818,8.252.427.427,0,0,0,.39.369c.182.014.366.021.551.021a10.05,10.05,0,0,0,7.4-3.8,11.732,11.732,0,0,0,2.757-8.489A.428.428,0,0,0,2428.741-492.314Z" transform="translate(-2418.014 492.315)"/>
        </g>
      </g>
      <g id="Group_3835" data-name="Group 3835" transform="translate(84.945 13.573)">
        <g id="Group_3833" data-name="Group 3833" transform="translate(3.767)">
          <path id="Path_25599" data-name="Path 25599" d="M2642.066-493.491h5.1a7.459,7.459,0,0,1,3.562.828,6.05,6.05,0,0,1,2.421,2.292,6.4,6.4,0,0,1,.865,3.322,6.4,6.4,0,0,1-.865,3.322,6.05,6.05,0,0,1-2.421,2.292,7.459,7.459,0,0,1-3.562.828h-5.1Zm5.025,12.038a6.725,6.725,0,0,0,3.147-.709,5.068,5.068,0,0,0,2.1-1.979,5.694,5.694,0,0,0,.736-2.908,5.7,5.7,0,0,0-.736-2.908,5.07,5.07,0,0,0-2.1-1.979,6.726,6.726,0,0,0-3.147-.709H2643v11.191Z" transform="translate(-2642.066 494.264)"/>
          <path id="Path_25600" data-name="Path 25600" d="M2718.947-467.138a4.5,4.5,0,0,1-1.721-1.74,5.038,5.038,0,0,1-.626-2.512,5.04,5.04,0,0,1,.626-2.513,4.51,4.51,0,0,1,1.721-1.739,4.866,4.866,0,0,1,2.458-.626,4.866,4.866,0,0,1,2.457.626,4.513,4.513,0,0,1,1.721,1.739,5.043,5.043,0,0,1,.626,2.513,5.041,5.041,0,0,1-.626,2.512,4.508,4.508,0,0,1-1.721,1.74,4.863,4.863,0,0,1-2.457.626A4.863,4.863,0,0,1,2718.947-467.138Zm4.436-.718a3.7,3.7,0,0,0,1.381-1.436,4.279,4.279,0,0,0,.506-2.1,4.281,4.281,0,0,0-.506-2.1,3.7,3.7,0,0,0-1.381-1.436,3.823,3.823,0,0,0-1.978-.515,3.825,3.825,0,0,0-1.979.515,3.7,3.7,0,0,0-1.38,1.436,4.278,4.278,0,0,0-.506,2.1,4.277,4.277,0,0,0,.506,2.1,3.7,3.7,0,0,0,1.38,1.436,3.823,3.823,0,0,0,1.979.515A3.82,3.82,0,0,0,2723.383-467.856Z" transform="translate(-2702.74 480.244)"/>
          <path id="Path_25601" data-name="Path 25601" d="M2788.122-475.872l-3.644,9.608h-.865l-3.24-8.338-3.258,8.338h-.847l-3.645-9.608h.883l3.2,8.577,3.276-8.577h.791l3.258,8.559,3.239-8.559Z" transform="translate(-2748.346 479.922)"/>
          <path id="Path_25602" data-name="Path 25602" d="M2875-475.219a4.089,4.089,0,0,1,1.049,3.019v5.614h-.92v-5.54a3.413,3.413,0,0,0-.819-2.467,3.042,3.042,0,0,0-2.292-.847,3.531,3.531,0,0,0-2.668,1.012,3.757,3.757,0,0,0-.976,2.724v5.117h-.92v-9.608h.884v2.08a3.65,3.65,0,0,1,1.481-1.583,4.564,4.564,0,0,1,2.328-.571A3.857,3.857,0,0,1,2875-475.219Z" transform="translate(-2825.539 480.244)"/>
          <path id="Path_25603" data-name="Path 25603" d="M2934.065-497.649h.921v13.658h-.921Z" transform="translate(-2879.766 497.649)"/>
          <path id="Path_25604" data-name="Path 25604" d="M2956.6-467.138a4.5,4.5,0,0,1-1.721-1.74,5.036,5.036,0,0,1-.626-2.512,5.037,5.037,0,0,1,.626-2.513,4.508,4.508,0,0,1,1.721-1.739,4.865,4.865,0,0,1,2.457-.626,4.867,4.867,0,0,1,2.457.626,4.515,4.515,0,0,1,1.721,1.739,5.042,5.042,0,0,1,.625,2.513,5.04,5.04,0,0,1-.625,2.512,4.51,4.51,0,0,1-1.721,1.74,4.864,4.864,0,0,1-2.457.626A4.862,4.862,0,0,1,2956.6-467.138Zm4.436-.718a3.7,3.7,0,0,0,1.381-1.436,4.287,4.287,0,0,0,.506-2.1,4.288,4.288,0,0,0-.506-2.1,3.7,3.7,0,0,0-1.381-1.436,3.826,3.826,0,0,0-1.979-.515,3.824,3.824,0,0,0-1.979.515,3.7,3.7,0,0,0-1.38,1.436,4.281,4.281,0,0,0-.506,2.1,4.279,4.279,0,0,0,.506,2.1,3.7,3.7,0,0,0,1.38,1.436,3.821,3.821,0,0,0,1.979.515A3.823,3.823,0,0,0,2961.04-467.856Z" transform="translate(-2896.203 480.244)"/>
          <path id="Path_25605" data-name="Path 25605" d="M3023.266-475.357a3.526,3.526,0,0,1,.957,2.678v6.092h-.883V-468.3a3.2,3.2,0,0,1-1.344,1.316,4.456,4.456,0,0,1-2.117.469,3.9,3.9,0,0,1-2.531-.755,2.434,2.434,0,0,1-.929-1.988,2.454,2.454,0,0,1,.855-1.942,4.114,4.114,0,0,1,2.734-.745h3.295v-.773a2.706,2.706,0,0,0-.727-2.043,2.951,2.951,0,0,0-2.126-.7,5.125,5.125,0,0,0-1.832.331,4.6,4.6,0,0,0-1.482.883l-.46-.663a5.111,5.111,0,0,1,1.73-1,6.288,6.288,0,0,1,2.116-.359A3.824,3.824,0,0,1,3023.266-475.357Zm-1.224,7.538a3.362,3.362,0,0,0,1.261-1.6v-1.8h-3.277a3.264,3.264,0,0,0-2.052.515,1.727,1.727,0,0,0-.635,1.417,1.775,1.775,0,0,0,.7,1.482,3.148,3.148,0,0,0,1.97.543A3.614,3.614,0,0,0,3022.042-467.819Z" transform="translate(-2946.806 480.244)"/>
          <path id="Path_25606" data-name="Path 25606" d="M3082.823-497.649v13.658h-.9v-2.264a4.126,4.126,0,0,1-1.6,1.73,4.517,4.517,0,0,1-2.338.607,4.776,4.776,0,0,1-2.43-.626,4.476,4.476,0,0,1-1.7-1.73,5.078,5.078,0,0,1-.617-2.522,5.132,5.132,0,0,1,.617-2.531,4.4,4.4,0,0,1,1.7-1.73,4.834,4.834,0,0,1,2.43-.617,4.432,4.432,0,0,1,2.31.607,4.325,4.325,0,0,1,1.611,1.693v-6.277Zm-2.807,12.388a3.7,3.7,0,0,0,1.38-1.436,4.28,4.28,0,0,0,.506-2.1,4.281,4.281,0,0,0-.506-2.1,3.7,3.7,0,0,0-1.38-1.436,3.824,3.824,0,0,0-1.979-.516,3.825,3.825,0,0,0-1.979.516,3.7,3.7,0,0,0-1.38,1.436,4.278,4.278,0,0,0-.506,2.1,4.277,4.277,0,0,0,.506,2.1,3.7,3.7,0,0,0,1.38,1.436,3.823,3.823,0,0,0,1.979.515A3.823,3.823,0,0,0,3080.016-485.261Z" transform="translate(-2993.055 497.649)"/>
          <path id="Path_25607" data-name="Path 25607" d="M3167.831-467.138a4.506,4.506,0,0,1-1.721-1.74,5.038,5.038,0,0,1-.626-2.512,5.04,5.04,0,0,1,.626-2.513,4.511,4.511,0,0,1,1.721-1.739,4.867,4.867,0,0,1,2.457-.626,4.866,4.866,0,0,1,2.457.626,4.511,4.511,0,0,1,1.721,1.739,5.038,5.038,0,0,1,.626,2.513,5.036,5.036,0,0,1-.626,2.512,4.506,4.506,0,0,1-1.721,1.74,4.863,4.863,0,0,1-2.457.626A4.864,4.864,0,0,1,3167.831-467.138Zm4.436-.718a3.7,3.7,0,0,0,1.38-1.436,4.282,4.282,0,0,0,.506-2.1,4.283,4.283,0,0,0-.506-2.1,3.707,3.707,0,0,0-1.38-1.436,3.825,3.825,0,0,0-1.979-.515,3.826,3.826,0,0,0-1.979.515,3.7,3.7,0,0,0-1.38,1.436,4.278,4.278,0,0,0-.506,2.1,4.277,4.277,0,0,0,.506,2.1,3.7,3.7,0,0,0,1.38,1.436,3.824,3.824,0,0,0,1.979.515A3.823,3.823,0,0,0,3172.267-467.856Z" transform="translate(-3068.151 480.244)"/>
          <path id="Path_25608" data-name="Path 25608" d="M3240.043-475.219a4.086,4.086,0,0,1,1.049,3.019v5.614h-.92v-5.54a3.411,3.411,0,0,0-.819-2.467,3.042,3.042,0,0,0-2.292-.847,3.533,3.533,0,0,0-2.669,1.012,3.76,3.76,0,0,0-.975,2.724v5.117h-.92v-9.608h.884v2.08a3.654,3.654,0,0,1,1.482-1.583,4.565,4.565,0,0,1,2.328-.571A3.856,3.856,0,0,1,3240.043-475.219Z" transform="translate(-3122.702 480.244)"/>
          <path id="Path_25609" data-name="Path 25609" d="M3322.385-476.057a2.313,2.313,0,0,1-.875.506,3.44,3.44,0,0,1-1.095.175,2.593,2.593,0,0,1-1.933-.69,2.621,2.621,0,0,1-.681-1.923v-6.277h-1.767v-.791h1.767v-2.1h.921v2.1h3.055v.791h-3.055v6.185a2.031,2.031,0,0,0,.451,1.426,1.729,1.729,0,0,0,1.334.488A2.136,2.136,0,0,0,3322-476.7Z" transform="translate(-3190.706 489.107)"/>
          <path id="Path_25610" data-name="Path 25610" d="M3371.49-492.624a4.086,4.086,0,0,1,1.049,3.019v5.614h-.92v-5.54A3.413,3.413,0,0,0,3370.8-492a3.042,3.042,0,0,0-2.292-.847,3.534,3.534,0,0,0-2.669,1.012,3.76,3.76,0,0,0-.976,2.724v5.117h-.92v-13.658h.92v6.056a3.528,3.528,0,0,1,1.473-1.537,4.656,4.656,0,0,1,2.3-.543A3.855,3.855,0,0,1,3371.49-492.624Z" transform="translate(-3229.706 497.649)"/>
          <path id="Path_25611" data-name="Path 25611" d="M3434.181-471.169h-8.265a4.019,4.019,0,0,0,.57,2,3.653,3.653,0,0,0,1.445,1.353,4.344,4.344,0,0,0,2.052.478,4.392,4.392,0,0,0,1.739-.341,3.385,3.385,0,0,0,1.335-1l.534.607a4.1,4.1,0,0,1-1.574,1.16,5.169,5.169,0,0,1-2.052.4,5.165,5.165,0,0,1-2.558-.626,4.54,4.54,0,0,1-1.758-1.73,4.969,4.969,0,0,1-.635-2.522,5.224,5.224,0,0,1,.6-2.513,4.417,4.417,0,0,1,1.648-1.739,4.514,4.514,0,0,1,2.356-.626,4.515,4.515,0,0,1,2.347.617,4.384,4.384,0,0,1,1.638,1.721,5.169,5.169,0,0,1,.6,2.5Zm-6.387-3.838a3.439,3.439,0,0,0-1.3,1.27,4.137,4.137,0,0,0-.561,1.85h7.362a3.849,3.849,0,0,0-.552-1.841,3.6,3.6,0,0,0-1.307-1.27,3.625,3.625,0,0,0-1.822-.46A3.682,3.682,0,0,0,3427.794-475.007Z" transform="translate(-3279.42 480.244)"/>
        </g>
        <g id="Group_3834" data-name="Group 3834" transform="translate(0 24.904)">
          <path id="Path_25612" data-name="Path 25612" d="M2639.2-345.109h-11.009l-2.17,5.1h-4.215l9.909-22.019h4.026l9.94,22.019H2641.4Zm-1.353-3.208-4.152-9.625-4.121,9.625Z" transform="translate(-2621.806 362.346)"/>
          <path id="Path_25613" data-name="Path 25613" d="M2776.917-333.9a7.718,7.718,0,0,1,3.035,3.02,9,9,0,0,1,1.1,4.5,9.082,9.082,0,0,1-1.1,4.514,7.685,7.685,0,0,1-3.035,3.036,8.915,8.915,0,0,1-4.388,1.069,6.781,6.781,0,0,1-5.379-2.265v8.147h-3.932v-22.9h3.743v2.2a6.08,6.08,0,0,1,2.406-1.793,8.132,8.132,0,0,1,3.161-.6A8.921,8.921,0,0,1,2776.917-333.9Zm-1.258,11.324a5.243,5.243,0,0,0,1.4-3.806,5.244,5.244,0,0,0-1.4-3.806,4.753,4.753,0,0,0-3.57-1.447,5.06,5.06,0,0,0-2.548.645,4.661,4.661,0,0,0-1.793,1.84,5.63,5.63,0,0,0-.661,2.768,5.627,5.627,0,0,0,.661,2.768,4.654,4.654,0,0,0,1.793,1.84,5.054,5.054,0,0,0,2.548.645A4.751,4.751,0,0,0,2775.658-322.574Z" transform="translate(-2736.921 340.314)"/>
          <path id="Path_25614" data-name="Path 25614" d="M2892.954-333.9a7.714,7.714,0,0,1,3.035,3.02,8.993,8.993,0,0,1,1.1,4.5,9.079,9.079,0,0,1-1.1,4.514,7.682,7.682,0,0,1-3.035,3.036,8.917,8.917,0,0,1-4.388,1.069,6.782,6.782,0,0,1-5.379-2.265v8.147h-3.932v-22.9H2883v2.2a6.08,6.08,0,0,1,2.407-1.793,8.128,8.128,0,0,1,3.161-.6A8.923,8.923,0,0,1,2892.954-333.9Zm-1.258,11.324a5.243,5.243,0,0,0,1.4-3.806,5.244,5.244,0,0,0-1.4-3.806,4.754,4.754,0,0,0-3.57-1.447,5.062,5.062,0,0,0-2.548.645,4.663,4.663,0,0,0-1.793,1.84,5.63,5.63,0,0,0-.66,2.768,5.627,5.627,0,0,0,.66,2.768,4.657,4.657,0,0,0,1.793,1.84,5.056,5.056,0,0,0,2.548.645A4.752,4.752,0,0,0,2891.7-322.574Z" transform="translate(-2831.381 340.314)"/>
          <path id="Path_25615" data-name="Path 25615" d="M3037.786-341.8a10.266,10.266,0,0,1-3.759-1.919l1.416-3.177a11.133,11.133,0,0,0,3.318,1.746,12.056,12.056,0,0,0,3.948.676,6.821,6.821,0,0,0,3.664-.786,2.382,2.382,0,0,0,1.211-2.076,2.011,2.011,0,0,0-.677-1.557,4.752,4.752,0,0,0-1.714-.96q-1.037-.346-2.831-.786a32.9,32.9,0,0,1-4.073-1.2,6.7,6.7,0,0,1-2.674-1.872,5.04,5.04,0,0,1-1.116-3.444,5.878,5.878,0,0,1,.991-3.319,6.706,6.706,0,0,1,2.988-2.375,12.11,12.11,0,0,1,4.891-.881,15.822,15.822,0,0,1,3.963.5,10.963,10.963,0,0,1,3.366,1.447l-1.29,3.177a12.741,12.741,0,0,0-3.02-1.29,11.311,11.311,0,0,0-3.051-.44,6.377,6.377,0,0,0-3.6.818,2.524,2.524,0,0,0-1.179,2.17,1.961,1.961,0,0,0,.676,1.541,4.877,4.877,0,0,0,1.714.944q1.038.346,2.831.786a29.813,29.813,0,0,1,4.026,1.18,6.9,6.9,0,0,1,2.689,1.872,4.933,4.933,0,0,1,1.117,3.4,5.8,5.8,0,0,1-.991,3.3,6.738,6.738,0,0,1-3,2.359,12.226,12.226,0,0,1-4.906.881A16.808,16.808,0,0,1,3037.786-341.8Z" transform="translate(-2957.372 363.723)"/>
          <path id="Path_25616" data-name="Path 25616" d="M3148.694-334.316a4.631,4.631,0,0,1-1.683.849,7.589,7.589,0,0,1-2.092.283,5.936,5.936,0,0,1-4.278-1.447,5.569,5.569,0,0,1-1.51-4.215v-8.084h-2.768v-3.145h2.768v-3.838h3.932v3.838h4.5v3.145h-4.5v7.99a2.657,2.657,0,0,0,.6,1.871,2.242,2.242,0,0,0,1.73.645,3.451,3.451,0,0,0,2.2-.692Z" transform="translate(-3040.678 355.737)"/>
          <path id="Path_25617" data-name="Path 25617" d="M3213.95-318.862a8.021,8.021,0,0,1-3.193-3.067,8.655,8.655,0,0,1-1.148-4.451,8.574,8.574,0,0,1,1.148-4.435,8.059,8.059,0,0,1,3.193-3.051,9.534,9.534,0,0,1,4.593-1.1,9.6,9.6,0,0,1,4.624,1.1,8.068,8.068,0,0,1,3.193,3.051,8.581,8.581,0,0,1,1.148,4.435,8.662,8.662,0,0,1-1.148,4.451,8.03,8.03,0,0,1-3.193,3.067,9.6,9.6,0,0,1-4.624,1.1A9.529,9.529,0,0,1,3213.95-318.862Zm8.178-3.712a5.208,5.208,0,0,0,1.416-3.806,5.209,5.209,0,0,0-1.416-3.806,4.8,4.8,0,0,0-3.586-1.447,4.752,4.752,0,0,0-3.57,1.447,5.243,5.243,0,0,0-1.4,3.806,5.241,5.241,0,0,0,1.4,3.806,4.75,4.75,0,0,0,3.57,1.447A4.8,4.8,0,0,0,3222.128-322.574Z" transform="translate(-3100.303 340.314)"/>
          <path id="Path_25618" data-name="Path 25618" d="M3335.874-334.967v3.743a5,5,0,0,0-.912-.094,4.749,4.749,0,0,0-3.586,1.337,5.329,5.329,0,0,0-1.29,3.853v8.147h-3.932v-16.8h3.743v2.454Q3331.6-334.967,3335.874-334.967Z" transform="translate(-3195.176 340.314)"/>
          <path id="Path_25619" data-name="Path 25619" d="M3405.178-325.122H3392a4.567,4.567,0,0,0,1.809,2.941,5.929,5.929,0,0,0,3.633,1.085A6.123,6.123,0,0,0,3402-322.92l2.107,2.422a7.1,7.1,0,0,1-2.862,2.045,10.426,10.426,0,0,1-3.9.692,10.374,10.374,0,0,1-4.875-1.1,7.925,7.925,0,0,1-3.256-3.067,8.657,8.657,0,0,1-1.148-4.451,8.792,8.792,0,0,1,1.116-4.419,7.923,7.923,0,0,1,3.1-3.067,9.04,9.04,0,0,1,4.467-1.1,8.812,8.812,0,0,1,4.388,1.085,7.682,7.682,0,0,1,3.02,3.051,9.252,9.252,0,0,1,1.085,4.545Q3405.24-325.876,3405.178-325.122Zm-11.623-5.583a4.7,4.7,0,0,0-1.588,2.973h9.531a4.636,4.636,0,0,0-1.542-2.957,4.687,4.687,0,0,0-3.208-1.132A4.744,4.744,0,0,0,3393.555-330.7Z" transform="translate(-3245.575 340.314)"/>
        </g>
      </g>
    </g>
  </g>
</svg>
