<svg xmlns="http://www.w3.org/2000/svg" width="26.056" height="26.056" viewBox="0 0 26.056 26.056">
  <path id="Icon_awesome-facebook-square" data-name="Icon awesome-facebook-square" d="M23.265,2.25H2.792A2.792,2.792,0,0,0,0,5.042V25.515a2.792,2.792,0,0,0,2.792,2.792h7.983V19.448H7.11v-4.17h3.664V12.1c0-3.615,2.152-5.611,5.448-5.611a22.2,22.2,0,0,1,3.229.282v3.548H17.633a2.085,2.085,0,0,0-2.351,2.253v2.707h4l-.64,4.17H15.282v8.859h7.983a2.792,2.792,0,0,0,2.792-2.792V5.042A2.792,2.792,0,0,0,23.265,2.25Z" transform="translate(0 -2.25)" fill="#fff" opacity="0.5"/>
</svg>
