<svg xmlns="http://www.w3.org/2000/svg" width="25.517" height="25.517" viewBox="0 0 25.517 25.517">
  <path id="Icon_metro-instagram" data-name="Icon metro-instagram" d="M23.852,1.928H6.807A4.249,4.249,0,0,0,2.571,6.164V23.209a4.249,4.249,0,0,0,4.236,4.236H23.852a4.249,4.249,0,0,0,4.236-4.236V6.164a4.249,4.249,0,0,0-4.236-4.236ZM10.739,13.092h9.18a4.859,4.859,0,1,1-9.18,0Zm14.159,0v9.568A1.6,1.6,0,0,1,23.3,24.256H7.355A1.6,1.6,0,0,1,5.76,22.661V13.092H8.255a7.252,7.252,0,1,0,14.149,0H24.9Zm0-5.583a.8.8,0,0,1-.8.8H22.506a.8.8,0,0,1-.8-.8V5.915a.8.8,0,0,1,.8-.8H24.1a.8.8,0,0,1,.8.8Z" transform="translate(-2.571 -1.928)" fill="#fff" opacity="0.5"/>
</svg>
