<svg xmlns="http://www.w3.org/2000/svg" width="26.842" height="26.842" viewBox="0 0 26.842 26.842">
  <path id="Icon_awesome-envelope-open-text" data-name="Icon awesome-envelope-open-text" d="M9.227,11.324h8.388a.839.839,0,0,0,.839-.839V9.646a.839.839,0,0,0-.839-.839H9.227a.839.839,0,0,0-.839.839v.839A.839.839,0,0,0,9.227,11.324Zm-.839,4.194a.839.839,0,0,0,.839.839h8.388a.839.839,0,0,0,.839-.839v-.839a.839.839,0,0,0-.839-.839H9.227a.839.839,0,0,0-.839.839Zm5.033,6.35a4.188,4.188,0,0,1-2.457-.8L0,13.151V24.325a2.516,2.516,0,0,0,2.516,2.516H24.326a2.516,2.516,0,0,0,2.516-2.516V13.151l-10.964,7.92A4.192,4.192,0,0,1,13.421,21.868ZM25.878,8.543c-.464-.364-.9-.706-1.552-1.2V5.033a2.516,2.516,0,0,0-2.516-2.516H17.743l-.474-.344C16.388,1.529,14.637-.018,13.421,0,12.2-.018,10.454,1.529,9.572,2.172L9.1,2.516H5.033A2.516,2.516,0,0,0,2.516,5.033V7.347c-.649.489-1.088.832-1.552,1.2A2.516,2.516,0,0,0,0,10.523v.558l5.033,3.636V5.033H21.809v9.684l5.033-3.636v-.558a2.516,2.516,0,0,0-.964-1.98Z" fill="#f8aa31" opacity="0.7"/>
</svg>
