<svg xmlns="http://www.w3.org/2000/svg" xmlns:xlink="http://www.w3.org/1999/xlink" width="193.43" height="165.587" viewBox="0 0 193.43 165.587">
  <defs>
    <linearGradient id="linear-gradient" x1="0.248" y1="0.069" x2="0.769" y2="0.924" gradientUnits="objectBoundingBox">
      <stop offset="0" stop-color="#f8b634"/>
      <stop offset="1" stop-color="#fb501c"/>
    </linearGradient>
    <linearGradient id="linear-gradient-2" x1="0.267" y1="0.058" x2="0.738" y2="1.15" gradientUnits="objectBoundingBox">
      <stop offset="0" stop-color="#dc2332"/>
      <stop offset="1" stop-color="#834191"/>
    </linearGradient>
    <linearGradient id="linear-gradient-3" x1="0.325" y1="-0.046" x2="0.693" y2="0.789" gradientUnits="objectBoundingBox">
      <stop offset="0" stop-color="#dc2332"/>
      <stop offset="0.261" stop-color="#d92334"/>
      <stop offset="0.455" stop-color="#d0263e"/>
      <stop offset="0.627" stop-color="#c12b4e"/>
      <stop offset="0.787" stop-color="#ac3365"/>
      <stop offset="0.936" stop-color="#903c82"/>
      <stop offset="1" stop-color="#834191"/>
    </linearGradient>
  </defs>
  <g id="Footer_Logo" data-name="Footer Logo" transform="translate(-146.996 -107.438)">
    <g id="Group_3838" data-name="Group 3838" transform="translate(146.996 221.302)">
      <path id="Path_25621" data-name="Path 25621" d="M147,332.249q0-7.562,0-15.125c0-1.039,0-1.042,1-1.042h18.269c.2,0,.4,0,.594.005a.36.36,0,0,1,.414.411c0,1.274,0,2.549,0,3.823,0,.332-.155.454-.466.445-.226-.007-.453,0-.68,0H154.322c-.227,0-.453-.007-.68,0-.628.024-.661.042-.663.693q-.012,3.824,0,7.647c0,.685.02.7.732.7q4.461.009,8.922,0c.255,0,.51,0,.765,0,.829.007.833.008.836.836q.006,1.4,0,2.8c0,.887,0,.892-.862.893q-3.229,0-6.458,0c-1.076,0-2.153-.007-3.229,0-.69.007-.706.019-.707.728q-.011,3.824,0,7.647c0,.842.009.851.843.851,4.079,0,8.157,0,12.236,0,1.39,0,1.21-.174,1.224,1.213q.013,1.4,0,2.8c-.007.664-.016.664-.647.684-.141,0-.283,0-.425,0h-18.1c-.227,0-.453-.008-.68,0a.362.362,0,0,1-.422-.4q-.008-.382-.009-.764Q147,339.685,147,332.249Z" transform="translate(-146.996 -315.199)" fill="#dd2431"/>
      <path id="Path_25622" data-name="Path 25622" d="M310.006,353.309c-.025-.259-.2-.322-.33-.416a3.633,3.633,0,0,1-.85-4.67,5.537,5.537,0,0,1,1.6-1.73c.225-.162.515-.241.692-.544-.1-.235-.35-.325-.549-.455a6.921,6.921,0,0,1,.339-11.626,11.458,11.458,0,0,1,7.042-1.382,9.479,9.479,0,0,1,3.421.932,2.293,2.293,0,0,0,1.072.187c1.727,0,3.454-.006,5.181,0,.657,0,.662.016.675.653.009.425.013.85,0,1.274-.026.76-.273,1.053-1.032,1.22-.442.1-.891.158-1.335.247-.823.166-.821.169-.628.961a7.464,7.464,0,0,1,.147,2.944,6.652,6.652,0,0,1-3.121,4.736,9.6,9.6,0,0,1-4.643,1.475,12.386,12.386,0,0,1-3.048-.106,1.459,1.459,0,0,0-1.6,1.072,1.2,1.2,0,0,0,.878,1.515,7.721,7.721,0,0,0,2.747.47c1.414.035,2.83.02,4.24.183a11.921,11.921,0,0,1,4.178,1.031,4.457,4.457,0,0,1,2.574,3.552,6.5,6.5,0,0,1-1.632,5.26,9.909,9.909,0,0,1-5.335,3.133,17.339,17.339,0,0,1-9.466-.3,7.652,7.652,0,0,1-3.393-2.019,4.6,4.6,0,0,1-1.317-3.47,4.1,4.1,0,0,1,2.188-3.424C309.133,353.758,309.585,353.537,310.006,353.309Zm6.373,6.574a14.511,14.511,0,0,0,2.639-.173,6.267,6.267,0,0,0,2.321-.776,2.658,2.658,0,0,0,1.31-1.7,1.787,1.787,0,0,0-.913-2.157,4.556,4.556,0,0,0-1.358-.471,17.211,17.211,0,0,0-3.211-.263,19.476,19.476,0,0,1-3.557-.173.744.744,0,0,0-.566.1,4.127,4.127,0,0,0-1.514,1.457,2.346,2.346,0,0,0,.774,3.207,5.205,5.205,0,0,0,1.645.662A15.9,15.9,0,0,0,316.379,359.883Zm.271-23.656v-.018c-.282.013-.566.015-.847.042a3.4,3.4,0,0,0-3.265,3.112,3.614,3.614,0,0,0,2.641,4.175,5.479,5.479,0,0,0,3.1-.058,3.237,3.237,0,0,0,2.381-2.716c.415-2.557-.907-4.452-3.581-4.537C316.933,336.223,316.791,336.227,316.65,336.227Z" transform="translate(-218.784 -322.552)" fill="#dd2431"/>
      <path id="Path_25623" data-name="Path 25623" d="M283.214,344.194a13.347,13.347,0,0,1-.906,5.237,9.951,9.951,0,0,1-7.884,6.365,13.144,13.144,0,0,1-5.814-.2,9.86,9.86,0,0,1-7.152-6.531,14.035,14.035,0,0,1-.007-9.657c1.455-4.052,4.472-6.195,8.657-6.807a12.728,12.728,0,0,1,5.059.251c4.453,1.149,6.945,4.115,7.825,8.549A16.528,16.528,0,0,1,283.214,344.194Zm-5.6.12a11.482,11.482,0,0,0-.694-4.454,4.716,4.716,0,0,0-4.029-3.192,6.984,6.984,0,0,0-2.361.1,4.556,4.556,0,0,0-3.18,2.319,7.024,7.024,0,0,0-.67,1.644,15.394,15.394,0,0,0-.245,5.89,7.9,7.9,0,0,0,.682,2.351,4.51,4.51,0,0,0,3.518,2.755c3.367.527,5.772-.658,6.633-4.175A11.93,11.93,0,0,0,277.613,344.314Z" transform="translate(-198.121 -322.571)" fill="#dd2431"/>
      <path id="Path_25624" data-name="Path 25624" d="M425.139,344.923H418.77c-.227,0-.453,0-.679.012-.243.012-.349.144-.325.39a8.114,8.114,0,0,0,1.468,4.363,5.57,5.57,0,0,0,4.1,2.118,8.318,8.318,0,0,0,4.674-.949c.5-.261.989-.552,1.5-.794a1.383,1.383,0,0,1,2.005.441q.513.622,1.007,1.26c.442.57.439.575-.09,1.109a8.5,8.5,0,0,1-2.484,1.756,13.823,13.823,0,0,1-10.8.587,9.183,9.183,0,0,1-5.186-4.534,13.616,13.616,0,0,1-.773-11.493,9.931,9.931,0,0,1,8.7-6.611,11.087,11.087,0,0,1,4.945.455c3.579,1.2,5.477,3.828,6.152,7.443a12.865,12.865,0,0,1,.166,3.045c-.057,1.1-.37,1.4-1.466,1.4C429.5,344.927,427.318,344.923,425.139,344.923Zm-2.058-3.262c1.526,0,3.051.007,4.577,0,.59,0,.645-.049.615-.538a4.6,4.6,0,0,0-3.3-4.527c-2.709-.705-5.637.086-6.753,3.471a8.879,8.879,0,0,0-.238.9c-.142.655-.126.69.523.7C420.029,341.67,421.555,341.661,423.081,341.661Z" transform="translate(-266.373 -322.581)" fill="#dd2431"/>
      <path id="Path_25625" data-name="Path 25625" d="M469.292,344.928q-3.226,0-6.453,0c-.875,0-.876.007-.785.909a8.745,8.745,0,0,0,.523,2.223,5.524,5.524,0,0,0,5.154,3.76,8.408,8.408,0,0,0,4.658-1.033c.5-.265.983-.566,1.5-.79a1.31,1.31,0,0,1,1.8.447c.382.455.751.922,1.115,1.391.387.5.386.506-.075.975a9.369,9.369,0,0,1-3,2.039,14.044,14.044,0,0,1-9.219.747,9.648,9.648,0,0,1-6.839-5.962,13.565,13.565,0,0,1,.028-11.13,9.938,9.938,0,0,1,8.314-5.913,11.652,11.652,0,0,1,3.964.165,9,9,0,0,1,7.22,7.627,15.829,15.829,0,0,1,.171,3.13c-.041,1.1-.356,1.407-1.45,1.411-2.208.008-4.415,0-6.623,0Zm-2-3.262c1.5,0,2.994.007,4.492,0,.727,0,.777-.053.7-.78a4.573,4.573,0,0,0-4.432-4.495,4.987,4.987,0,0,0-5.208,2.727,6.737,6.737,0,0,0-.653,1.917c-.11.6-.1.624.522.629C464.238,341.673,465.764,341.665,467.289,341.665Z" transform="translate(-286.278 -322.585)" fill="#dd2431"/>
      <path id="Path_25626" data-name="Path 25626" d="M207.662,353.3a2.706,2.706,0,0,0-.948.721,9.025,9.025,0,0,1-7.827,2.13,6.645,6.645,0,0,1-5.233-4.351,9.64,9.64,0,0,1-.712-3.645q-.007-7.135,0-14.27c0-.76.009-.772.734-.777q1.954-.013,3.908,0c.741,0,.752.015.752.759q.006,6.71,0,13.421a9.01,9.01,0,0,0,.167,1.856,3.462,3.462,0,0,0,3.443,2.944,6.869,6.869,0,0,0,5.167-2.171.834.834,0,0,0,.273-.68c-.007-.226,0-.453,0-.679v-14.27c0-.113,0-.227,0-.34.008-.833.008-.839.841-.842,1.274,0,2.548-.007,3.822,0,.733,0,.744.016.745.772q.006,5.988,0,11.977,0,4.5,0,9c0,.227-.008.453-.006.679,0,.282-.126.41-.411.408-1.047-.007-2.1.023-3.142-.02a1.24,1.24,0,0,1-1.157-1.069A5.752,5.752,0,0,0,207.662,353.3Z" transform="translate(-167.672 -322.857)" fill="#dd2431"/>
      <path id="Path_25627" data-name="Path 25627" d="M385.16,337.342a2.279,2.279,0,0,0-.941-.085q-4.417-.008-8.833,0c-.2,0-.4-.015-.595,0-.4.035-.566-.129-.562-.532q.018-1.529,0-3.058c0-.39.152-.583.552-.561.141.008.283,0,.425,0h15.288c1.031,0,1.031,0,1.036,1.016,0,.227-.014.454,0,.679a4.31,4.31,0,0,1-1.03,3.055c-1.909,2.459-3.777,4.951-5.662,7.43q-2.159,2.839-4.315,5.68a1.432,1.432,0,0,0-.395.695c.254.2.571.12.861.12q4.544.01,9.088,0c.2,0,.4.012.595,0,.391-.024.572.142.569.542-.009,1.048-.008,2.1,0,3.143,0,.366-.171.508-.523.482-.169-.012-.339,0-.509,0H374.665c-.17,0-.341-.014-.509,0-.41.037-.559-.165-.551-.55.014-.622,0-1.246.026-1.867a3.4,3.4,0,0,1,.842-1.908q5.087-6.694,10.157-13.4A2.021,2.021,0,0,0,385.16,337.342Z" transform="translate(-248.978 -322.859)" fill="#dd2431"/>
      <path id="Path_25628" data-name="Path 25628" d="M246.837,331.016q0,7.811,0,15.622c0,1,.068.926-.91.928-1.3,0-2.6-.012-3.905.007-.428.006-.638-.13-.6-.578.016-.168,0-.339,0-.509q0-15.452,0-30.9c0-1.252-.087-1.091,1.085-1.1q1.825-.012,3.651,0c.653,0,.667.016.67.656.009,1.556,0,3.113,0,4.67Z" transform="translate(-189.49 -314.477)" fill="#dd2431"/>
      <path id="Path_25629" data-name="Path 25629" d="M354.038,344.545V334.276c0-.227,0-.453,0-.679,0-.305.131-.483.451-.483q2.292,0,4.583,0c.28,0,.405.163.411.43q.007.3.007.594,0,10.4,0,20.794c0,1.191-.03,1.01-1.006,1.016-1.216.008-2.433.005-3.65,0-.786,0-.8-.008-.8-.8q-.007-5.05,0-10.1Z" transform="translate(-240.172 -322.864)" fill="#dd2431"/>
      <path id="Path_25630" data-name="Path 25630" d="M356.183,321.464a3.427,3.427,0,0,1-3.428-3.454,3.477,3.477,0,1,1,6.954.091A3.444,3.444,0,0,1,356.183,321.464Z" transform="translate(-239.595 -314.518)" fill="#dd2431"/>
    </g>
    <path id="Path_25631" data-name="Path 25631" d="M275.94,138.285a43.506,43.506,0,1,0-19.766,50.58l-9.8-17.034a23.921,23.921,0,1,1,2.266-40.195l-19.119,10.937,9.8,16.838Z" transform="translate(-19.674)" fill="url(#linear-gradient)"/>
    <path id="Path_25632" data-name="Path 25632" d="M339.384,209.162A23.987,23.987,0,0,1,315.4,185.175c0-.661.028-1.314.08-1.961L296.656,194.07a43.656,43.656,0,0,0,64.555,28.9l-9.8-17.034A23.878,23.878,0,0,1,339.384,209.162Z" transform="translate(-67.353 -34.102)" fill="url(#linear-gradient-2)"/>
    <path id="Path_25633" data-name="Path 25633" d="M336.756,122.927a49.635,49.635,0,0,1,4.583,7.947,24.376,24.376,0,0,1,27.23.763l-19.119,10.937,9.8,16.838,36.626-21.126a43.521,43.521,0,0,0-66.117-23.309A49.81,49.81,0,0,1,336.756,122.927Z" transform="translate(-82.249)" fill="url(#linear-gradient-3)"/>
    <g id="Group_3839" data-name="Group 3839" transform="translate(146.996 266.326)">
      <path id="Path_25634" data-name="Path 25634" d="M147,403.015v-6.484h3.441v.878h-2.47v1.855h2.4v.878h-2.4v1.987h2.47v.887Z" transform="translate(-146.996 -396.428)" fill="#fff"/>
      <path id="Path_25635" data-name="Path 25635" d="M158.072,403.015l-1.944-6.484h1.038l1.429,5.076,1.438-5.076h1.038l-1.944,6.484Z" transform="translate(-151.106 -396.428)" fill="#fff"/>
      <path id="Path_25636" data-name="Path 25636" d="M168.367,403.015v-6.484h3.441v.878h-2.47v1.855h2.4v.878h-2.4v1.987h2.47v.887Z" transform="translate(-156.614 -396.428)" fill="#fff"/>
      <path id="Path_25637" data-name="Path 25637" d="M181.522,403.015l-1.2-2.507H179.6v2.507h-.972v-6.484h2.026a1.807,1.807,0,0,1,1.829,1.979,1.743,1.743,0,0,1-1.2,1.851l1.332,2.654Zm-.954-3.385c.561,0,.923-.436.923-1.111s-.362-1.11-.923-1.11h-.97v2.221Z" transform="translate(-161.231 -396.428)" fill="#fff"/>
      <path id="Path_25638" data-name="Path 25638" d="M190.264,403.015v-2.758l-2.008-3.725h1.087l1.407,2.76,1.407-2.76h1.078l-2.021,3.777.013,2.706Z" transform="translate(-165.564 -396.428)" fill="#fff"/>
      <path id="Path_25639" data-name="Path 25639" d="M206.484,403.015v-6.484h.971v5.6h2.263v.887Z" transform="translate(-173.768 -396.428)" fill="#fff"/>
      <rect id="Rectangle_533" data-name="Rectangle 533" width="0.971" height="6.484" transform="translate(37.983 0.103)" fill="#fff"/>
      <path id="Path_25640" data-name="Path 25640" d="M222.205,403.015v-6.484h3.441v.878h-2.47v1.855h2.4v.878h-2.4v2.873Z" transform="translate(-180.843 -396.428)" fill="#fff"/>
      <path id="Path_25641" data-name="Path 25641" d="M232.293,403.015v-6.484h3.441v.878h-2.47v1.855h2.4v.878h-2.4v1.987h2.47v.887Z" transform="translate(-185.383 -396.428)" fill="#fff"/>
      <path id="Path_25642" data-name="Path 25642" d="M248.612,403.015v-6.484h1.781c1.6,0,2.627,1.275,2.627,3.247s-1.031,3.237-2.627,3.237Zm1.781-.887c1.207,0,1.637-1.214,1.637-2.35,0-1.484-.612-2.369-1.637-2.369h-.81v4.719Z" transform="translate(-192.727 -396.428)" fill="#fff"/>
      <path id="Path_25643" data-name="Path 25643" d="M260.629,403.015v-6.484h3.441v.878H261.6v1.855H264v.878h-2.4v1.987h2.47v.887Z" transform="translate(-198.135 -396.428)" fill="#fff"/>
      <path id="Path_25644" data-name="Path 25644" d="M272.142,403.043a2.513,2.513,0,0,1-1.951-.827l-.058-.065.548-.759.091.109a1.807,1.807,0,0,0,1.371.654.9.9,0,0,0,1.035-.913c0-.638-.557-.906-1.2-1.215-.762-.366-1.625-.781-1.625-1.931a1.773,1.773,0,0,1,1.9-1.753,2.381,2.381,0,0,1,1.751.69l.064.065-.526.752-.092-.1a1.582,1.582,0,0,0-1.214-.518.831.831,0,0,0-.9.829c0,.517.514.767,1.109,1.058.766.373,1.718.838,1.718,2.079A1.811,1.811,0,0,1,272.142,403.043Z" transform="translate(-202.412 -396.344)" fill="#fff"/>
      <path id="Path_25645" data-name="Path 25645" d="M281.3,403.015v-6.484h3.441v.878h-2.47v1.855h2.4v.878h-2.4v1.987h2.47v.887Z" transform="translate(-207.438 -396.428)" fill="#fff"/>
      <path id="Path_25646" data-name="Path 25646" d="M294.455,403.015l-1.2-2.507h-.722v2.507h-.971v-6.484h2.026a1.806,1.806,0,0,1,1.829,1.979,1.743,1.743,0,0,1-1.2,1.851l1.332,2.654Zm-.954-3.385c.56,0,.923-.436.923-1.111s-.362-1.11-.923-1.11h-.97v2.221Z" transform="translate(-212.055 -396.428)" fill="#fff"/>
      <path id="Path_25647" data-name="Path 25647" d="M303.351,403.015l-1.944-6.484h1.038l1.429,5.076,1.437-5.076h1.039l-1.944,6.484Z" transform="translate(-216.487 -396.428)" fill="#fff"/>
      <path id="Path_25648" data-name="Path 25648" d="M313.647,403.015v-6.484h3.441v.878h-2.469v1.855h2.4v.878h-2.4v1.987h2.469v.887Z" transform="translate(-221.995 -396.428)" fill="#fff"/>
      <path id="Path_25649" data-name="Path 25649" d="M325.16,403.043a2.513,2.513,0,0,1-1.951-.827l-.058-.065.548-.759.091.109a1.806,1.806,0,0,0,1.37.654.905.905,0,0,0,1.036-.913c0-.638-.556-.906-1.2-1.215-.762-.366-1.625-.781-1.625-1.931a1.773,1.773,0,0,1,1.9-1.753,2.377,2.377,0,0,1,1.749.69l.064.065-.526.752-.092-.1a1.584,1.584,0,0,0-1.214-.518.831.831,0,0,0-.9.829c0,.517.514.767,1.109,1.058.765.373,1.718.838,1.718,2.079A1.812,1.812,0,0,1,325.16,403.043Z" transform="translate(-226.272 -396.344)" fill="#fff"/>
      <path id="Path_25650" data-name="Path 25650" d="M341.093,403.015v-5.606h-1.484v-.878h3.939v.878h-1.493v5.606Z" transform="translate(-233.679 -396.428)" fill="#fff"/>
      <path id="Path_25651" data-name="Path 25651" d="M352.14,403.043c-1.481,0-2.476-1.346-2.476-3.349s1-3.35,2.476-3.35,2.486,1.346,2.486,3.35S353.627,403.043,352.14,403.043Zm0-5.813c-.9,0-1.487.967-1.487,2.463,0,1.225.46,2.462,1.487,2.462s1.5-1.237,1.5-2.462C353.636,398.2,353.049,397.231,352.14,397.231Z" transform="translate(-238.204 -396.344)" fill="#fff"/>
      <path id="Path_25652" data-name="Path 25652" d="M368.731,403.015v-6.484h2.186a1.578,1.578,0,0,1,1.66,1.707,1.553,1.553,0,0,1-.747,1.425,1.723,1.723,0,0,1,.85,1.552,1.612,1.612,0,0,1-1.706,1.8Zm2.092-.887c.716,0,.866-.538.866-.989,0-.482-.228-1-.866-1H369.7v1.986Zm-.047-2.864a.936.936,0,0,0,0-1.855H369.7v1.855Z" transform="translate(-246.785 -396.428)" fill="#fff"/>
      <path id="Path_25653" data-name="Path 25653" d="M379.929,403.015v-6.484h3.441v.878H380.9v1.855h2.4v.878h-2.4v1.987h2.469v.887Z" transform="translate(-251.824 -396.428)" fill="#fff"/>
      <path id="Path_25654" data-name="Path 25654" d="M398.4,403.043c-1.521,0-2.542-1.346-2.542-3.349s1.022-3.35,2.542-3.35a2.1,2.1,0,0,1,1.929,1.28l.053.1-.821.386-.048-.1a1.251,1.251,0,0,0-1.113-.785c-.915,0-1.553,1.013-1.553,2.463s.638,2.462,1.553,2.462a1.279,1.279,0,0,0,1.12-.863l.045-.1.834.386-.051.1A2.108,2.108,0,0,1,398.4,403.043Z" transform="translate(-258.991 -396.344)" fill="#fff"/>
      <path id="Path_25655" data-name="Path 25655" d="M407.735,403.015v-6.484h3.441v.878h-2.469v1.855h2.4v.878h-2.4v1.987h2.469v.887Z" transform="translate(-264.338 -396.428)" fill="#fff"/>
      <path id="Path_25656" data-name="Path 25656" d="M417.994,403.015v-6.484h.972v5.6h2.263v.887Z" transform="translate(-268.955 -396.428)" fill="#fff"/>
      <path id="Path_25657" data-name="Path 25657" d="M427.57,403.015v-6.484h3.441v.878h-2.469v1.855h2.4v.878h-2.4v1.987h2.469v.887Z" transform="translate(-273.265 -396.428)" fill="#fff"/>
      <path id="Path_25658" data-name="Path 25658" d="M437.829,403.015v-6.484h2.186a1.577,1.577,0,0,1,1.659,1.707,1.554,1.554,0,0,1-.746,1.425,1.724,1.724,0,0,1,.85,1.552,1.612,1.612,0,0,1-1.707,1.8Zm2.091-.887c.716,0,.866-.538.866-.989,0-.482-.228-1-.866-1H438.8v1.986Zm-.047-2.864a.936.936,0,0,0,0-1.855H438.8v1.855Z" transform="translate(-277.881 -396.428)" fill="#fff"/>
      <path id="Path_25659" data-name="Path 25659" d="M451.923,403.015l-1.2-2.507H450v2.507h-.972v-6.484h2.026a1.806,1.806,0,0,1,1.828,1.979,1.744,1.744,0,0,1-1.2,1.851l1.332,2.654Zm-.954-3.385c.56,0,.923-.436.923-1.111s-.362-1.11-.923-1.11H450v2.221Z" transform="translate(-282.921 -396.428)" fill="#fff"/>
      <path id="Path_25660" data-name="Path 25660" d="M462.884,403.015l-.4-1.418h-2.059l-.4,1.418h-1.038l1.944-6.484h1.055l1.944,6.484Zm-.626-2.3-.811-2.848-.8,2.848Z" transform="translate(-287.4 -396.428)" fill="#fff"/>
      <path id="Path_25661" data-name="Path 25661" d="M471.148,403.015v-5.606h-1.484v-.878H473.6v.878H472.11v5.606Z" transform="translate(-292.208 -396.428)" fill="#fff"/>
      <path id="Path_25662" data-name="Path 25662" d="M480.436,403.015v-6.484h3.441v.878h-2.469v1.855h2.4v.878h-2.4v1.987h2.469v.887Z" transform="translate(-297.056 -396.428)" fill="#fff"/>
      <path id="Path_25663" data-name="Path 25663" d="M490.694,403.015v-6.484h1.782c1.6,0,2.627,1.275,2.627,3.247s-1.031,3.237-2.627,3.237Zm1.782-.887c1.207,0,1.636-1.214,1.636-2.35,0-1.484-.612-2.369-1.636-2.369h-.81v4.719Z" transform="translate(-301.673 -396.428)" fill="#fff"/>
    </g>
  </g>
</svg>
