<svg xmlns="http://www.w3.org/2000/svg" width="26.056" height="26.056" viewBox="0 0 26.056 26.056">
  <path id="Icon_awesome-google-plus-square" data-name="Icon awesome-google-plus-square" d="M23.265,2.25H2.792A2.792,2.792,0,0,0,0,5.042V25.515a2.792,2.792,0,0,0,2.792,2.792H23.265a2.792,2.792,0,0,0,2.792-2.792V5.042A2.792,2.792,0,0,0,23.265,2.25ZM9.538,21.094a5.816,5.816,0,0,1,0-11.632,5.556,5.556,0,0,1,3.9,1.524L11.859,12.5a3.263,3.263,0,0,0-2.315-.9,3.677,3.677,0,0,0,0,7.352,3.155,3.155,0,0,0,3.3-2.507H9.538v-2h5.49a4.727,4.727,0,0,1,.093.965A5.361,5.361,0,0,1,9.538,21.094Zm12.8-4.758H20.647v1.687h-1.7V16.337H17.262v-1.7h1.687V12.952h1.7v1.687h1.687Z" transform="translate(0 -2.25)" fill="#8b3e89"/>
</svg>
