<svg xmlns="http://www.w3.org/2000/svg" width="102" height="102" viewBox="0 0 102 102">
  <g id="Left_Arrow" data-name="Left Arrow" transform="translate(-70 -2486)">
    <circle id="Ellipse_202" data-name="Ellipse 202" cx="51" cy="51" r="51" transform="translate(70 2486)" fill="#f8aa31" opacity="0.7"/>
    <path id="Icon_awesome-arrow-left" data-name="Icon awesome-arrow-left" d="M10.573,19.38l-.912.912a.982.982,0,0,1-1.392,0L.286,12.312a.982.982,0,0,1,0-1.392L8.269,2.937a.982.982,0,0,1,1.392,0l.912.912a.987.987,0,0,1-.016,1.409L5.608,9.972h31.8a.983.983,0,0,1,.986.986v1.314a.983.983,0,0,1-.986.986H5.608l4.949,4.714A.98.98,0,0,1,10.573,19.38Z" transform="translate(101.804 2525.386)" fill="#231f20"/>
  </g>
</svg>
