<svg xmlns="http://www.w3.org/2000/svg" xmlns:xlink="http://www.w3.org/1999/xlink" width="315.237" height="78.654" viewBox="0 0 315.237 78.654">
  <defs>
    <linearGradient id="linear-gradient" x1="0.248" y1="0.069" x2="0.769" y2="0.924" gradientUnits="objectBoundingBox">
      <stop offset="0" stop-color="#f8b634"/>
      <stop offset="1" stop-color="#fb501c"/>
    </linearGradient>
    <linearGradient id="linear-gradient-2" x1="0.267" y1="0.058" x2="0.738" y2="1.15" gradientUnits="objectBoundingBox">
      <stop offset="0" stop-color="#dc2332"/>
      <stop offset="1" stop-color="#834191"/>
    </linearGradient>
    <linearGradient id="linear-gradient-3" x1="0.325" y1="-0.046" x2="0.693" y2="0.789" gradientUnits="objectBoundingBox">
      <stop offset="0" stop-color="#dc2332"/>
      <stop offset="0.261" stop-color="#d92334"/>
      <stop offset="0.455" stop-color="#d0263e"/>
      <stop offset="0.627" stop-color="#c12b4e"/>
      <stop offset="0.787" stop-color="#ac3365"/>
      <stop offset="0.936" stop-color="#903c82"/>
      <stop offset="1" stop-color="#834191"/>
    </linearGradient>
  </defs>
  <g id="Logo" transform="translate(21.247 -528.644)">
    <g id="Group_3778" data-name="Group 3778" transform="translate(119.66 547.003)">
      <path id="Path_5693" data-name="Path 5693" d="M263.037,581.86q0-6.815,0-13.631c0-.937,0-.939.9-.939h16.465c.178,0,.357,0,.536,0a.325.325,0,0,1,.373.371c0,1.149,0,2.3,0,3.446,0,.3-.139.409-.42.4-.2-.006-.408,0-.613,0H269.64c-.2,0-.408-.005-.613,0-.566.022-.6.038-.6.626q-.011,3.446,0,6.892c0,.618.018.631.66.632q4.021.009,8.041,0c.23,0,.459,0,.689,0,.747.006.75.006.753.753q.005,1.264,0,2.527c0,.8,0,.8-.777.8q-2.91,0-5.82,0c-.97,0-1.94-.006-2.91,0-.622.006-.635.016-.637.656q-.01,3.446,0,6.893c0,.759.008.767.759.767,3.676,0,7.352,0,11.027,0,1.253,0,1.091-.157,1.1,1.093q.012,1.263,0,2.527c-.006.6-.014.6-.583.617-.127,0-.255,0-.383,0H264.039c-.2,0-.408-.007-.613,0a.326.326,0,0,1-.381-.363q-.007-.344-.008-.689Q263.037,588.56,263.037,581.86Z" transform="translate(-263.037 -566.493)" fill="#dd2431"/>
      <path id="Path_5694" data-name="Path 5694" d="M425.7,602.454c-.022-.233-.182-.291-.3-.375a3.275,3.275,0,0,1-.766-4.209,4.993,4.993,0,0,1,1.445-1.559c.2-.146.464-.218.624-.491-.089-.212-.315-.293-.5-.41a6.238,6.238,0,0,1,.306-10.478,10.326,10.326,0,0,1,6.346-1.245,8.556,8.556,0,0,1,3.083.839,2.068,2.068,0,0,0,.966.169c1.556,0,3.113-.005,4.67,0,.591,0,.6.014.609.589.008.383.011.766,0,1.148-.023.685-.245.949-.929,1.1-.4.088-.8.143-1.2.223-.741.149-.74.153-.566.866a6.727,6.727,0,0,1,.132,2.653,6,6,0,0,1-2.813,4.269,8.651,8.651,0,0,1-4.184,1.329,11.162,11.162,0,0,1-2.747-.1,1.314,1.314,0,0,0-1.438.967,1.085,1.085,0,0,0,.791,1.366,6.957,6.957,0,0,0,2.475.424c1.275.032,2.551.018,3.821.165a10.745,10.745,0,0,1,3.766.929,4.017,4.017,0,0,1,2.32,3.2,5.856,5.856,0,0,1-1.471,4.741,8.93,8.93,0,0,1-4.808,2.823,15.628,15.628,0,0,1-8.531-.266,6.893,6.893,0,0,1-3.058-1.82,4.14,4.14,0,0,1-1.187-3.127,3.7,3.7,0,0,1,1.972-3.086C424.915,602.858,425.323,602.659,425.7,602.454Zm5.744,5.925a13.075,13.075,0,0,0,2.379-.156,5.65,5.65,0,0,0,2.092-.7,2.4,2.4,0,0,0,1.181-1.53,1.61,1.61,0,0,0-.824-1.944,4.1,4.1,0,0,0-1.224-.425,15.508,15.508,0,0,0-2.894-.237,17.553,17.553,0,0,1-3.206-.156.666.666,0,0,0-.51.094,3.718,3.718,0,0,0-1.364,1.313,2.115,2.115,0,0,0,.7,2.891,4.692,4.692,0,0,0,1.483.6A14.328,14.328,0,0,0,431.445,608.379Zm.244-21.32v-.016c-.254.012-.51.014-.763.038a3.065,3.065,0,0,0-2.943,2.8,3.257,3.257,0,0,0,2.38,3.764,4.938,4.938,0,0,0,2.791-.052,2.919,2.919,0,0,0,2.146-2.448c.374-2.3-.817-4.013-3.228-4.089C431.945,587.055,431.817,587.058,431.69,587.058Z" transform="translate(-343.488 -574.734)" fill="#dd2431"/>
      <path id="Path_5695" data-name="Path 5695" d="M397.022,594.242a12.032,12.032,0,0,1-.817,4.72,8.968,8.968,0,0,1-7.1,5.736,11.847,11.847,0,0,1-5.24-.176,8.887,8.887,0,0,1-6.446-5.887,12.649,12.649,0,0,1-.006-8.7c1.311-3.651,4.031-5.583,7.8-6.135a11.467,11.467,0,0,1,4.559.227c4.014,1.035,6.26,3.708,7.053,7.705A14.889,14.889,0,0,1,397.022,594.242Zm-5.048.109a10.346,10.346,0,0,0-.626-4.014,4.251,4.251,0,0,0-3.631-2.877,6.3,6.3,0,0,0-2.128.086,4.106,4.106,0,0,0-2.866,2.09,6.318,6.318,0,0,0-.6,1.481,13.877,13.877,0,0,0-.221,5.309,7.132,7.132,0,0,0,.615,2.119,4.065,4.065,0,0,0,3.171,2.483c3.034.475,5.2-.593,5.978-3.763A10.752,10.752,0,0,0,391.974,594.351Z" transform="translate(-320.331 -574.754)" fill="#dd2431"/>
      <path id="Path_5696" data-name="Path 5696" d="M539.908,594.9h-5.74c-.2,0-.408,0-.612.01-.219.01-.315.13-.293.351a7.314,7.314,0,0,0,1.323,3.932,5.018,5.018,0,0,0,3.694,1.909,7.488,7.488,0,0,0,4.213-.855c.452-.235.891-.5,1.351-.716a1.247,1.247,0,0,1,1.807.4q.463.561.908,1.136c.4.514.4.517-.081,1a7.652,7.652,0,0,1-2.239,1.582,12.457,12.457,0,0,1-9.738.529,8.276,8.276,0,0,1-4.674-4.086,12.272,12.272,0,0,1-.7-10.358,8.951,8.951,0,0,1,7.841-5.959,10.006,10.006,0,0,1,4.456.41,8.058,8.058,0,0,1,5.545,6.708,11.591,11.591,0,0,1,.149,2.745c-.052.988-.333,1.257-1.321,1.26C543.836,594.905,541.872,594.9,539.908,594.9Zm-1.855-2.94c1.375,0,2.75.007,4.125,0,.531,0,.581-.044.554-.485a4.144,4.144,0,0,0-2.975-4.08c-2.442-.635-5.08.077-6.086,3.128a8,8,0,0,0-.215.81c-.128.59-.114.622.471.627C535.3,591.969,536.678,591.962,538.053,591.961Z" transform="translate(-396.82 -574.765)" fill="#dd2431"/>
      <path id="Path_5697" data-name="Path 5697" d="M584.068,594.906q-2.908,0-5.816,0c-.789,0-.79.006-.708.819a7.885,7.885,0,0,0,.471,2,4.978,4.978,0,0,0,4.645,3.388,7.573,7.573,0,0,0,4.2-.931c.451-.238.886-.51,1.353-.713a1.181,1.181,0,0,1,1.619.4c.344.41.677.831,1.005,1.254.348.448.348.456-.068.878a8.446,8.446,0,0,1-2.7,1.838,12.66,12.66,0,0,1-8.308.673,8.7,8.7,0,0,1-6.164-5.373,12.222,12.222,0,0,1,.025-10.031,8.957,8.957,0,0,1,7.493-5.329,10.514,10.514,0,0,1,3.573.148,8.113,8.113,0,0,1,6.507,6.874,14.238,14.238,0,0,1,.155,2.821c-.037.994-.321,1.268-1.307,1.272-1.99.007-3.979,0-5.969,0Zm-1.805-2.94c1.349,0,2.7.005,4.048,0,.655,0,.7-.048.634-.7a4.121,4.121,0,0,0-3.994-4.051,4.5,4.5,0,0,0-4.693,2.458,6.077,6.077,0,0,0-.589,1.727c-.1.539-.094.563.471.567C579.513,591.974,580.888,591.966,582.263,591.967Z" transform="translate(-419.126 -574.77)" fill="#dd2431"/>
      <path id="Path_5698" data-name="Path 5698" d="M322.249,602.508a2.445,2.445,0,0,0-.854.65,8.134,8.134,0,0,1-7.054,1.92,5.989,5.989,0,0,1-4.716-3.922,8.69,8.69,0,0,1-.641-3.285q-.007-6.431,0-12.861c0-.685.008-.7.661-.7q1.761-.012,3.522,0c.668,0,.678.014.678.684q.005,6.048,0,12.1a8.124,8.124,0,0,0,.151,1.673,3.12,3.12,0,0,0,3.1,2.654,6.191,6.191,0,0,0,4.657-1.956.75.75,0,0,0,.245-.613c-.006-.2,0-.408,0-.613V585.374c0-.1,0-.2,0-.306.007-.751.007-.756.758-.759,1.148,0,2.3-.007,3.445,0,.661,0,.671.014.671.7q.005,5.4,0,10.794,0,4.057,0,8.115c0,.2-.007.408,0,.612,0,.254-.113.369-.37.367-.944-.006-1.889.021-2.832-.018a1.118,1.118,0,0,1-1.043-.964A5.186,5.186,0,0,0,322.249,602.508Z" transform="translate(-286.208 -575.075)" fill="#dd2431"/>
      <path id="Path_5699" data-name="Path 5699" d="M500.06,588.131a2.054,2.054,0,0,0-.848-.077q-3.981-.007-7.961,0c-.178,0-.358-.014-.536,0-.358.031-.51-.116-.506-.48q.016-1.378,0-2.755c0-.352.137-.525.5-.506.127.007.255,0,.383,0h13.778c.929,0,.929,0,.934.916,0,.2-.013.409,0,.612a3.887,3.887,0,0,1-.928,2.753c-1.72,2.217-3.4,4.462-5.1,6.7q-1.946,2.559-3.889,5.12a1.287,1.287,0,0,0-.356.626c.229.179.515.109.776.109q4.1.009,8.191,0c.178,0,.358.01.535,0,.353-.022.516.128.513.489-.008.944-.007,1.888,0,2.832,0,.329-.154.457-.471.434-.152-.011-.306,0-.459,0H490.6c-.153,0-.307-.012-.459,0-.37.033-.5-.149-.5-.5.013-.561,0-1.123.024-1.683a3.062,3.062,0,0,1,.759-1.72q4.584-6.033,9.154-12.076A1.822,1.822,0,0,0,500.06,588.131Z" transform="translate(-377.326 -575.077)" fill="#dd2431"/>
      <path id="Path_5700" data-name="Path 5700" d="M362.343,580.59q0,7.04,0,14.079c0,.9.061.835-.82.837-1.173,0-2.346-.01-3.52.006-.386.005-.575-.117-.536-.521.014-.152,0-.306,0-.459q0-13.926,0-27.852c0-1.128-.078-.983.978-.99q1.645-.01,3.29,0c.589,0,.6.014.6.591.008,1.4,0,2.805,0,4.208Z" transform="translate(-310.659 -565.684)" fill="#dd2431"/>
      <path id="Path_5701" data-name="Path 5701" d="M470.079,594.623v-9.256c0-.2,0-.408,0-.612,0-.276.118-.436.406-.436q2.065,0,4.13,0c.253,0,.365.147.371.388q.006.268.006.535,0,9.37,0,18.741c0,1.073-.027.91-.907.916-1.1.007-2.193,0-3.289,0-.708,0-.718-.007-.719-.719q-.006-4.552,0-9.1Z" transform="translate(-367.457 -575.083)" fill="#dd2431"/>
      <path id="Path_5702" data-name="Path 5702" d="M471.886,571.99a3.089,3.089,0,0,1-3.09-3.113,3.134,3.134,0,1,1,6.267.082A3.1,3.1,0,0,1,471.886,571.99Z" transform="translate(-366.81 -565.73)" fill="#dd2431"/>
    </g>
    <g id="Group_3779" data-name="Group 3779" transform="translate(-21.247 528.644)">
      <path id="Path_5703" data-name="Path 5703" d="M55.565,556.446a39.519,39.519,0,0,0-37.486-27.8,39.327,39.327,0,1,0,19.672,73.388l-8.834-15.352a21.619,21.619,0,1,1-10.838-40.326,21.586,21.586,0,0,1,12.88,4.1l-17.232,9.857,8.829,15.175Z" transform="translate(21.247 -528.644)" fill="url(#linear-gradient)"/>
      <path id="Path_5704" data-name="Path 5704" d="M123.206,627.806a21.618,21.618,0,0,1-21.618-21.618c0-.6.025-1.185.072-1.768L84.7,614.205a39.345,39.345,0,0,0,58.18,26.044L134.043,624.9A21.515,21.515,0,0,1,123.206,627.806Z" transform="translate(-32.185 -566.862)" fill="url(#linear-gradient-2)"/>
      <path id="Path_5705" data-name="Path 5705" d="M124.106,542.6a44.71,44.71,0,0,1,4.131,7.162,21.969,21.969,0,0,1,24.541.688l-17.231,9.857,8.828,15.175,33.009-19.039A39.222,39.222,0,0,0,117.8,535.439,44.89,44.89,0,0,1,124.106,542.6Z" transform="translate(-48.879 -528.644)" fill="url(#linear-gradient-3)"/>
    </g>
    <g id="Group_3780" data-name="Group 3780" transform="translate(119.661 587.581)">
      <path id="Path_5706" data-name="Path 5706" d="M263.037,653.581v-5.843h3.1v.791h-2.226V650.2h2.167v.791h-2.167v1.79h2.226v.8Z" transform="translate(-263.037 -647.645)"/>
      <path id="Path_5707" data-name="Path 5707" d="M273.921,653.581l-1.752-5.843h.936l1.288,4.575,1.3-4.575h.936l-1.752,5.843Z" transform="translate(-267.643 -647.645)"/>
      <path id="Path_5708" data-name="Path 5708" d="M284.408,653.581v-5.843h3.1v.791h-2.226V650.2h2.167v.791h-2.167v1.79h2.226v.8Z" transform="translate(-273.815 -647.645)"/>
      <path id="Path_5709" data-name="Path 5709" d="M297.277,653.581l-1.083-2.26h-.651v2.26h-.876v-5.843h1.826a1.628,1.628,0,0,1,1.648,1.783,1.572,1.572,0,0,1-1.08,1.668l1.2,2.392Zm-.86-3.05c.506,0,.832-.393.832-1s-.326-1-.832-1h-.874v2Z" transform="translate(-278.989 -647.645)"/>
      <path id="Path_5710" data-name="Path 5710" d="M306.106,653.581V651.1l-1.81-3.357h.979l1.268,2.488,1.268-2.488h.971l-1.822,3.4.012,2.439Z" transform="translate(-283.846 -647.645)"/>
      <path id="Path_5711" data-name="Path 5711" d="M322.525,653.581v-5.843h.875v5.044h2.04v.8Z" transform="translate(-293.039 -647.645)"/>
      <rect id="Rectangle_504" data-name="Rectangle 504" width="0.875" height="5.843" transform="translate(34.232 0.093)"/>
      <path id="Path_5712" data-name="Path 5712" d="M338.246,653.581v-5.843h3.1v.791h-2.226V650.2h2.167v.791h-2.167v2.59Z" transform="translate(-300.968 -647.645)"/>
      <path id="Path_5713" data-name="Path 5713" d="M348.334,653.581v-5.843h3.1v.791h-2.226V650.2h2.167v.791h-2.167v1.79h2.226v.8Z" transform="translate(-306.056 -647.645)"/>
      <path id="Path_5714" data-name="Path 5714" d="M364.653,653.581v-5.843h1.605c1.438,0,2.367,1.148,2.367,2.926s-.929,2.917-2.367,2.917Zm1.605-.8c1.087,0,1.475-1.094,1.475-2.118,0-1.337-.552-2.135-1.475-2.135h-.73v4.253Z" transform="translate(-314.286 -647.645)"/>
      <path id="Path_5715" data-name="Path 5715" d="M376.67,653.581v-5.843h3.1v.791h-2.226V650.2h2.167v.791h-2.167v1.79h2.226v.8Z" transform="translate(-320.347 -647.645)"/>
      <path id="Path_5716" data-name="Path 5716" d="M387.984,653.588a2.264,2.264,0,0,1-1.759-.745l-.052-.059.494-.684.082.1a1.628,1.628,0,0,0,1.236.59.816.816,0,0,0,.933-.823c0-.575-.5-.816-1.083-1.095-.686-.33-1.465-.7-1.465-1.741a1.6,1.6,0,0,1,1.716-1.58,2.147,2.147,0,0,1,1.578.622l.057.059-.474.678-.083-.093a1.426,1.426,0,0,0-1.094-.466.749.749,0,0,0-.815.747c0,.466.463.691,1,.953.69.337,1.548.755,1.548,1.874A1.632,1.632,0,0,1,387.984,653.588Z" transform="translate(-325.14 -647.55)"/>
      <path id="Path_5717" data-name="Path 5717" d="M397.341,653.581v-5.843h3.1v.791h-2.226V650.2h2.167v.791h-2.167v1.79h2.226v.8Z" transform="translate(-330.772 -647.645)"/>
      <path id="Path_5718" data-name="Path 5718" d="M410.21,653.581l-1.084-2.26h-.651v2.26H407.6v-5.843h1.826a1.628,1.628,0,0,1,1.648,1.783,1.571,1.571,0,0,1-1.08,1.668l1.2,2.392Zm-.86-3.05c.505,0,.832-.393.832-1s-.327-1-.832-1h-.874v2Z" transform="translate(-335.946 -647.645)"/>
      <path id="Path_5719" data-name="Path 5719" d="M419.2,653.581l-1.752-5.843h.936l1.288,4.575,1.3-4.575h.936l-1.752,5.843Z" transform="translate(-340.913 -647.645)"/>
      <path id="Path_5720" data-name="Path 5720" d="M429.688,653.581v-5.843h3.1v.791h-2.226V650.2h2.167v.791h-2.167v1.79h2.226v.8Z" transform="translate(-347.086 -647.645)"/>
      <path id="Path_5721" data-name="Path 5721" d="M441,653.588a2.265,2.265,0,0,1-1.759-.745l-.052-.059.494-.684.082.1a1.629,1.629,0,0,0,1.236.59.816.816,0,0,0,.933-.823c0-.575-.5-.816-1.083-1.095-.686-.33-1.465-.7-1.465-1.741a1.6,1.6,0,0,1,1.715-1.58,2.144,2.144,0,0,1,1.577.622l.058.059-.474.678-.083-.093a1.427,1.427,0,0,0-1.094-.466.749.749,0,0,0-.815.747c0,.466.463.691,1,.953.689.337,1.548.755,1.548,1.874A1.633,1.633,0,0,1,441,653.588Z" transform="translate(-351.879 -647.55)"/>
      <path id="Path_5722" data-name="Path 5722" d="M456.988,653.581v-5.052H455.65v-.791h3.55v.791h-1.346v5.052Z" transform="translate(-360.18 -647.645)"/>
      <path id="Path_5723" data-name="Path 5723" d="M467.937,653.588c-1.335,0-2.232-1.213-2.232-3.019s.9-3.019,2.232-3.019,2.24,1.214,2.24,3.019S469.277,653.588,467.937,653.588Zm0-5.239c-.814,0-1.34.871-1.34,2.22,0,1.1.414,2.22,1.34,2.22s1.348-1.115,1.348-2.22C469.285,649.221,468.756,648.349,467.937,648.349Z" transform="translate(-365.251 -647.55)"/>
      <path id="Path_5724" data-name="Path 5724" d="M484.772,653.581v-5.843h1.97a1.422,1.422,0,0,1,1.5,1.538,1.4,1.4,0,0,1-.673,1.284,1.555,1.555,0,0,1,.766,1.4,1.453,1.453,0,0,1-1.538,1.622Zm1.885-.8c.645,0,.781-.485.781-.891,0-.435-.205-.9-.781-.9h-1.009v1.791Zm-.042-2.581a.844.844,0,0,0,0-1.672h-.967V650.2Z" transform="translate(-374.867 -647.645)"/>
      <path id="Path_5725" data-name="Path 5725" d="M495.97,653.581v-5.843h3.1v.791h-2.226V650.2h2.167v.791h-2.167v1.79h2.226v.8Z" transform="translate(-380.515 -647.645)"/>
      <path id="Path_5726" data-name="Path 5726" d="M514.186,653.588c-1.37,0-2.291-1.213-2.291-3.019s.921-3.019,2.291-3.019a1.894,1.894,0,0,1,1.738,1.154l.048.092-.74.347-.043-.086a1.127,1.127,0,0,0-1-.707c-.824,0-1.4.913-1.4,2.22s.575,2.22,1.4,2.22a1.153,1.153,0,0,0,1.009-.778l.041-.093.752.348-.046.092A1.9,1.9,0,0,1,514.186,653.588Z" transform="translate(-388.547 -647.55)"/>
      <path id="Path_5727" data-name="Path 5727" d="M523.776,653.581v-5.843h3.1v.791h-2.226V650.2h2.167v.791h-2.167v1.79h2.226v.8Z" transform="translate(-394.539 -647.645)"/>
      <path id="Path_5728" data-name="Path 5728" d="M534.035,653.581v-5.843h.876v5.044h2.039v.8Z" transform="translate(-399.713 -647.645)"/>
      <path id="Path_5729" data-name="Path 5729" d="M543.611,653.581v-5.843h3.1v.791h-2.226V650.2h2.167v.791h-2.167v1.79h2.226v.8Z" transform="translate(-404.543 -647.645)"/>
      <path id="Path_5730" data-name="Path 5730" d="M553.87,653.581v-5.843h1.97a1.422,1.422,0,0,1,1.5,1.538,1.4,1.4,0,0,1-.673,1.284,1.555,1.555,0,0,1,.766,1.4,1.453,1.453,0,0,1-1.538,1.622Zm1.885-.8c.645,0,.781-.485.781-.891,0-.435-.205-.9-.781-.9h-1.009v1.791Zm-.042-2.581a.844.844,0,0,0,0-1.672h-.967V650.2Z" transform="translate(-409.716 -647.645)"/>
      <path id="Path_5731" data-name="Path 5731" d="M567.678,653.581l-1.084-2.26h-.65v2.26h-.876v-5.843h1.826a1.628,1.628,0,0,1,1.648,1.783,1.572,1.572,0,0,1-1.08,1.668l1.2,2.392Zm-.86-3.05c.505,0,.832-.393.832-1s-.327-1-.832-1h-.874v2Z" transform="translate(-415.364 -647.645)"/>
      <path id="Path_5732" data-name="Path 5732" d="M578.539,653.581l-.364-1.278h-1.856l-.364,1.278h-.936l1.753-5.843h.951l1.752,5.843Zm-.564-2.069-.731-2.567-.724,2.567Z" transform="translate(-420.383 -647.645)"/>
      <path id="Path_5733" data-name="Path 5733" d="M587.042,653.581v-5.052h-1.337v-.791h3.55v.791h-1.346v5.052Z" transform="translate(-425.772 -647.645)"/>
      <path id="Path_5734" data-name="Path 5734" d="M596.477,653.581v-5.843h3.1v.791h-2.226V650.2h2.167v.791h-2.167v1.79h2.226v.8Z" transform="translate(-431.205 -647.645)"/>
      <path id="Path_5735" data-name="Path 5735" d="M606.735,653.581v-5.843h1.606c1.438,0,2.367,1.148,2.367,2.926s-.929,2.917-2.367,2.917Zm1.606-.8c1.087,0,1.475-1.094,1.475-2.118,0-1.337-.551-2.135-1.475-2.135h-.73v4.253Z" transform="translate(-436.379 -647.645)"/>
    </g>
  </g>
</svg>
