<svg xmlns="http://www.w3.org/2000/svg" width="22.333" height="16.75" viewBox="0 0 22.333 16.75">
  <path id="Icon_awesome-envelope" data-name="Icon awesome-envelope" d="M21.91,10.031a.263.263,0,0,1,.423.205v8.92a2.094,2.094,0,0,1-2.094,2.094H2.094A2.094,2.094,0,0,1,0,19.156V10.24a.261.261,0,0,1,.423-.205c.977.759,2.273,1.723,6.722,4.955.92.672,2.473,2.085,4.022,2.076,1.557.013,3.141-1.431,4.026-2.076C19.642,11.758,20.933,10.79,21.91,10.031ZM11.167,15.667c1.012.017,2.469-1.274,3.2-1.806,5.788-4.2,6.229-4.567,7.564-5.614a1.044,1.044,0,0,0,.4-.824V6.594A2.094,2.094,0,0,0,20.239,4.5H2.094A2.094,2.094,0,0,0,0,6.594v.829a1.05,1.05,0,0,0,.4.824C1.736,9.289,2.177,9.66,7.965,13.861,8.7,14.393,10.155,15.684,11.167,15.667Z" transform="translate(0 -4.5)" fill="#8b3e89"/>
</svg>
