<svg xmlns="http://www.w3.org/2000/svg" width="39.516" height="70.368" viewBox="0 0 39.516 70.368">
  <g id="Group_3875" data-name="Group 3875" transform="translate(-38.865 -369.816)">
    <path id="Path_25708" data-name="Path 25708" d="M44.244,440.184a13.1,13.1,0,0,1-1.489-.476,6.053,6.053,0,0,1-3.855-5.676c-.068-2.541-.016-5.085-.016-7.627q0-24.876,0-49.75c0-3.688,1.665-5.832,5.25-6.762.04-.01.073-.051.11-.077H72.968a13.974,13.974,0,0,1,1.37.413,6.073,6.073,0,0,1,4.012,5.486c.021.273.02.548.02.823q0,28.461.011,56.923a6.61,6.61,0,0,1-1.909,4.97,7.123,7.123,0,0,1-3.5,1.753Zm-2.612-35.891q0,11.955-.012,23.91c0,.554.111.727.7.725q16.284-.029,32.567,0c.618,0,.748-.168.748-.76q-.026-23.876,0-47.751c0-.567-.136-.725-.715-.722-4.626.025-9.252.014-13.878.014-1.1,0-2.2,0-3.3,0a1.351,1.351,0,0,1-1.415-.973c-.306-.951.377-1.769,1.486-1.771q5.565-.009,11.131,0c2.038,0,4.076-.014,6.114.01.46.005.569-.142.572-.583a3.513,3.513,0,0,0-3.786-3.825q-13.226,0-26.452,0a3.538,3.538,0,0,0-3.772,3.916c.012.4.144.5.517.488.984-.022,1.969-.015,2.954-.005a1.378,1.378,0,1,1,.016,2.743c-.916.014-1.835.049-2.747-.012-.626-.042-.744.166-.743.756Q41.649,392.372,41.632,404.293ZM58.6,431.663q-7.353,0-14.7,0c-.728,0-1.708-.247-2.119.123-.472.424-.145,1.422-.139,2.167a3.463,3.463,0,0,0,3.5,3.478c.686.011,1.374,0,2.061,0q12.334,0,24.668,0a3.48,3.48,0,0,0,3.746-3.719c0-.435-.037-.874.01-1.3.063-.59-.118-.767-.741-.764C69.461,431.675,64.033,431.663,58.6,431.663Z" fill="#8b3e89"/>
    <path id="Path_25709" data-name="Path 25709" d="M50.917,388.375c1.534,0,3.068-.005,4.6,0a1.42,1.42,0,0,1,1.625,1.59q.015,4.637,0,9.272a1.407,1.407,0,0,1-1.563,1.586q-4.671.022-9.341,0a1.4,1.4,0,0,1-1.557-1.591q-.015-4.637,0-9.272c0-1.069.545-1.58,1.633-1.584C47.849,388.37,49.383,388.375,50.917,388.375ZM47.428,394.5c0,1.007.015,2.015-.007,3.021-.009.4.093.573.53.569q2.953-.027,5.906,0c.414,0,.554-.122.55-.546-.019-1.969-.016-3.938,0-5.906,0-.372-.086-.525-.492-.521-1.992.018-3.984.021-5.975,0-.456-.005-.525.185-.517.57C47.441,392.623,47.428,393.561,47.428,394.5Z" fill="#fb551d"/>
    <path id="Path_25710" data-name="Path 25710" d="M50.865,416.127c-1.511,0-3.022.006-4.533,0a1.441,1.441,0,0,1-1.65-1.641q-.012-4.6,0-9.2a1.429,1.429,0,0,1,1.609-1.615q4.6-.021,9.2,0a1.447,1.447,0,0,1,1.649,1.646q.01,4.6,0,9.2a1.426,1.426,0,0,1-1.609,1.611C53.979,416.135,52.422,416.127,50.865,416.127Zm-.023-2.749c1.029,0,2.057-.011,3.086.007.349.006.48-.1.477-.464q-.021-3.018,0-6.035c0-.348-.1-.485-.468-.482q-3.017.018-6.034,0c-.351,0-.482.114-.48.474q.02,3.017,0,6.034c0,.357.113.48.472.473C48.876,413.366,49.859,413.378,50.842,413.378Z" fill="#fb551d"/>
    <path id="Path_25711" data-name="Path 25711" d="M72.566,409.93c0,1.534.006,3.068,0,4.6a1.406,1.406,0,0,1-1.609,1.594q-4.6.01-9.2,0c-1.1,0-1.611-.494-1.615-1.588q-.018-4.635,0-9.271a1.4,1.4,0,0,1,1.609-1.6q4.6-.02,9.2,0c1.126.005,1.613.525,1.617,1.664C72.57,406.863,72.566,408.4,72.566,409.93Zm-2.749.02c0-.983-.016-1.966.008-2.948.01-.42-.075-.61-.556-.6q-2.915.039-5.828,0c-.475,0-.57.185-.567.607q.024,2.914,0,5.828c0,.4.1.559.535.554q2.949-.031,5.9,0c.451.006.528-.167.518-.559C69.8,411.87,69.817,410.91,69.817,409.95Z" fill="#fb551d"/>
    <path id="Path_25712" data-name="Path 25712" d="M72.566,394.61c0,1.534,0,3.068,0,4.6-.005,1.091-.5,1.611-1.591,1.615q-4.635.02-9.27,0a1.383,1.383,0,0,1-1.566-1.569q-.018-4.669,0-9.339c.005-1.049.526-1.539,1.588-1.541q4.636-.009,9.271,0a1.386,1.386,0,0,1,1.566,1.563C72.573,391.5,72.566,393.054,72.566,394.61Zm-2.749.026c0-1.007-.016-2.015.008-3.022.01-.4-.128-.5-.51-.5q-2.954.025-5.907,0c-.362,0-.537.07-.534.484q.025,2.988,0,5.975c0,.391.14.514.523.511,1.969-.014,3.938-.019,5.906,0,.452.005.529-.178.52-.57C69.8,396.559,69.817,395.6,69.817,394.636Z" fill="#fb551d"/>
    <path id="Path_25713" data-name="Path 25713" d="M58.675,419.431c1.42,0,2.84-.005,4.26,0,.978,0,1.624.575,1.6,1.4a1.417,1.417,0,0,1-1.587,1.347q-4.329.009-8.658,0a1.381,1.381,0,1,1-.018-2.743C55.743,419.424,57.209,419.431,58.675,419.431Z" fill="#8b3e89"/>
    <path id="Path_25714" data-name="Path 25714" d="M51.055,379.7a1.37,1.37,0,1,1,1.356-1.357A1.355,1.355,0,0,1,51.055,379.7Z" fill="#8b3e89"/>
    <path id="Path_25715" data-name="Path 25715" d="M58.606,433.177c.572,0,1.144-.019,1.715.005a1.367,1.367,0,1,1-.015,2.733q-1.681.037-3.363,0a1.37,1.37,0,0,1-1.378-1.339,1.4,1.4,0,0,1,1.394-1.4c.046,0,.091,0,.137,0h1.51Z" fill="#8b3e89"/>
  </g>
</svg>
