<svg xmlns="http://www.w3.org/2000/svg" width="26.842" height="26.842" viewBox="0 0 26.842 26.842">
  <path id="Icon_awesome-phone-square-alt" data-name="Icon awesome-phone-square-alt" d="M23.966,2.25H2.876A2.876,2.876,0,0,0,0,5.126v21.09a2.876,2.876,0,0,0,2.876,2.876h21.09a2.876,2.876,0,0,0,2.876-2.876V5.126A2.876,2.876,0,0,0,23.966,2.25Zm-.982,18.416-.9,3.895a.9.9,0,0,1-.875.7A17.377,17.377,0,0,1,3.835,7.882a.941.941,0,0,1,.7-.875l3.895-.9a1.092,1.092,0,0,1,.2-.023.975.975,0,0,1,.826.545l1.8,4.194a1.072,1.072,0,0,1,.072.354,1.019,1.019,0,0,1-.33.7L8.724,13.73a13.9,13.9,0,0,0,6.637,6.637l1.857-2.27a1.019,1.019,0,0,1,.7-.33,1.07,1.07,0,0,1,.354.072l4.194,1.8a.974.974,0,0,1,.545.826,1.043,1.043,0,0,1-.023.2Z" transform="translate(0 -2.25)" fill="#db2332" opacity="0.7"/>
</svg>
