<svg xmlns="http://www.w3.org/2000/svg" width="271.123" height="82.451" viewBox="0 0 271.123 82.451">
  <g id="Group_5279" data-name="Group 5279" transform="translate(0 0)">
    <path id="Path_25595" data-name="Path 25595" d="M14.292-.428l241.893.3c17.6,0,12.79,18.027,12.79,40.159S274.439,81,252.307,81L14.292,80.4C-5.993,80.4-.1,62.16-.1,40.028S-6.291-.428,14.292-.428Z" transform="translate(1.218 1.104)" fill="#fff"/>
    <g id="Group_3825" data-name="Group 3825">
      <g id="Group_3788" data-name="Group 3788" transform="translate(0 0)">
        <g id="Group_3787" data-name="Group 3787">
          <g id="Group_3786" data-name="Group 3786">
            <g id="Group_3785" data-name="Group 3785">
              <path id="Path_25566" data-name="Path 25566" d="M2425.643-1120.835a8.63,8.63,0,0,1,8.621,8.62v61.49a8.631,8.631,0,0,1-8.621,8.621H2175.48a8.631,8.631,0,0,1-8.621-8.621v-61.49a8.631,8.631,0,0,1,8.621-8.62h250.163m0-1.859H2175.48a10.48,10.48,0,0,0-10.48,10.48v61.49a10.48,10.48,0,0,0,10.48,10.48h250.163a10.48,10.48,0,0,0,10.48-10.48v-61.49a10.48,10.48,0,0,0-10.48-10.48Z" transform="translate(-2165 1122.695)"/>
            </g>
          </g>
        </g>
      </g>
      <g id="Group_3815" data-name="Group 3815" transform="translate(72.623 13.573)">
        <g id="Group_3803" data-name="Group 3803" transform="translate(1.569)">
          <g id="Group_3789" data-name="Group 3789" transform="translate(0 0.773)">
            <path id="Path_25567" data-name="Path 25567" d="M2574.1-1036.288h-7.473l-1.638,3.626h-1.012l5.927-12.884h.939l5.927,12.884h-1.013Zm-.35-.791-3.387-7.436-3.368,7.436Z" transform="translate(-2563.974 1045.546)"/>
          </g>
          <g id="Group_3790" data-name="Group 3790" transform="translate(12.461 4.05)">
            <path id="Path_25568" data-name="Path 25568" d="M2640.594-1027.927l-4.344,9.608h-.938l-4.326-9.608h.976l3.829,8.6,3.865-8.6Z" transform="translate(-2630.986 1027.927)"/>
          </g>
          <g id="Group_3791" data-name="Group 3791" transform="translate(22.916 3.976)">
            <path id="Path_25569" data-name="Path 25569" d="M2694.057-1027.412a3.529,3.529,0,0,1,.957,2.678v6.093h-.883v-1.712a3.2,3.2,0,0,1-1.344,1.316,4.456,4.456,0,0,1-2.117.469,3.9,3.9,0,0,1-2.531-.755,2.434,2.434,0,0,1-.929-1.988,2.453,2.453,0,0,1,.856-1.942,4.112,4.112,0,0,1,2.733-.745h3.295v-.773a2.706,2.706,0,0,0-.727-2.043,2.951,2.951,0,0,0-2.126-.7,5.119,5.119,0,0,0-1.831.331,4.588,4.588,0,0,0-1.482.883l-.46-.663a5.111,5.111,0,0,1,1.73-1,6.285,6.285,0,0,1,2.117-.359A3.826,3.826,0,0,1,2694.057-1027.412Zm-1.224,7.537a3.36,3.36,0,0,0,1.261-1.6v-1.8h-3.277a3.261,3.261,0,0,0-2.052.515,1.727,1.727,0,0,0-.635,1.417,1.775,1.775,0,0,0,.7,1.482,3.148,3.148,0,0,0,1.97.543A3.612,3.612,0,0,0,2692.833-1019.875Z" transform="translate(-2687.21 1028.323)"/>
          </g>
          <g id="Group_3792" data-name="Group 3792" transform="translate(34.218 0.221)">
            <path id="Path_25570" data-name="Path 25570" d="M2748.206-1047.237a.7.7,0,0,1-.221-.525.726.726,0,0,1,.221-.534.727.727,0,0,1,.534-.221.746.746,0,0,1,.534.212.7.7,0,0,1,.221.525.726.726,0,0,1-.221.534.728.728,0,0,1-.534.221A.743.743,0,0,1,2748.206-1047.237Zm.074,2.549h.92v9.608h-.92Z" transform="translate(-2747.985 1048.516)"/>
          </g>
          <g id="Group_3793" data-name="Group 3793" transform="translate(39.316)">
            <path id="Path_25571" data-name="Path 25571" d="M2775.4-1049.7h.92v13.658h-.92Z" transform="translate(-2775.402 1049.704)"/>
          </g>
          <g id="Group_3794" data-name="Group 3794" transform="translate(43.255 3.976)">
            <path id="Path_25572" data-name="Path 25572" d="M2803.43-1027.412a3.528,3.528,0,0,1,.957,2.678v6.093h-.883v-1.712a3.2,3.2,0,0,1-1.344,1.316,4.456,4.456,0,0,1-2.117.469,3.9,3.9,0,0,1-2.531-.755,2.435,2.435,0,0,1-.929-1.988,2.454,2.454,0,0,1,.856-1.942,4.112,4.112,0,0,1,2.733-.745h3.295v-.773a2.706,2.706,0,0,0-.727-2.043,2.949,2.949,0,0,0-2.126-.7,5.119,5.119,0,0,0-1.831.331,4.583,4.583,0,0,0-1.482.883l-.46-.663a5.116,5.116,0,0,1,1.73-1,6.285,6.285,0,0,1,2.117-.359A3.825,3.825,0,0,1,2803.43-1027.412Zm-1.224,7.537a3.357,3.357,0,0,0,1.26-1.6v-1.8h-3.276a3.262,3.262,0,0,0-2.052.515,1.727,1.727,0,0,0-.635,1.417,1.774,1.774,0,0,0,.7,1.482,3.147,3.147,0,0,0,1.969.543A3.613,3.613,0,0,0,2802.206-1019.875Z" transform="translate(-2796.583 1028.323)"/>
          </g>
          <g id="Group_3795" data-name="Group 3795" transform="translate(54.851)">
            <path id="Path_25573" data-name="Path 25573" d="M2866.194-1045.111a4.4,4.4,0,0,1,1.7,1.73,5.139,5.139,0,0,1,.617,2.531,5.085,5.085,0,0,1-.617,2.522,4.484,4.484,0,0,1-1.7,1.73,4.78,4.78,0,0,1-2.43.626,4.476,4.476,0,0,1-2.329-.617,4.194,4.194,0,0,1-1.61-1.721v2.264h-.884V-1049.7h.92v6.24a4.148,4.148,0,0,1,1.6-1.666,4.5,4.5,0,0,1,2.3-.6A4.835,4.835,0,0,1,2866.194-1045.111Zm-.5,7.8a3.678,3.678,0,0,0,1.39-1.436,4.285,4.285,0,0,0,.507-2.1,4.287,4.287,0,0,0-.507-2.1,3.684,3.684,0,0,0-1.39-1.436,3.875,3.875,0,0,0-1.988-.515,3.828,3.828,0,0,0-1.979.515,3.7,3.7,0,0,0-1.38,1.436,4.282,4.282,0,0,0-.506,2.1,4.28,4.28,0,0,0,.506,2.1,3.693,3.693,0,0,0,1.38,1.436,3.822,3.822,0,0,0,1.979.515A3.869,3.869,0,0,0,2865.7-1037.316Z" transform="translate(-2858.942 1049.704)"/>
          </g>
          <g id="Group_3796" data-name="Group 3796" transform="translate(67.275)">
            <path id="Path_25574" data-name="Path 25574" d="M2925.755-1049.7h.92v13.658h-.92Z" transform="translate(-2925.755 1049.704)"/>
          </g>
          <g id="Group_3797" data-name="Group 3797" transform="translate(71.03 3.976)">
            <path id="Path_25575" data-name="Path 25575" d="M2955.113-1023.224h-8.265a4.013,4.013,0,0,0,.571,2,3.649,3.649,0,0,0,1.445,1.353,4.342,4.342,0,0,0,2.052.479,4.394,4.394,0,0,0,1.739-.34,3.385,3.385,0,0,0,1.334-1l.534.608a4.1,4.1,0,0,1-1.574,1.159,5.163,5.163,0,0,1-2.052.405,5.164,5.164,0,0,1-2.559-.626,4.538,4.538,0,0,1-1.758-1.73,4.967,4.967,0,0,1-.635-2.522,5.221,5.221,0,0,1,.6-2.512,4.411,4.411,0,0,1,1.647-1.74,4.512,4.512,0,0,1,2.356-.626,4.515,4.515,0,0,1,2.347.616,4.386,4.386,0,0,1,1.638,1.721,5.172,5.172,0,0,1,.6,2.5Zm-6.387-3.838a3.434,3.434,0,0,0-1.3,1.27,4.131,4.131,0,0,0-.562,1.85h7.363a3.852,3.852,0,0,0-.552-1.841,3.6,3.6,0,0,0-1.307-1.27,3.625,3.625,0,0,0-1.823-.46A3.682,3.682,0,0,0,2948.726-1027.062Z" transform="translate(-2945.946 1028.323)"/>
          </g>
          <g id="Group_3798" data-name="Group 3798" transform="translate(86.749 3.976)">
            <path id="Path_25576" data-name="Path 25576" d="M3032.823-1019.193a4.51,4.51,0,0,1-1.721-1.739,5.041,5.041,0,0,1-.625-2.513,5.042,5.042,0,0,1,.625-2.512,4.515,4.515,0,0,1,1.721-1.74,4.868,4.868,0,0,1,2.458-.626,4.865,4.865,0,0,1,2.457.626,4.508,4.508,0,0,1,1.721,1.74,5.042,5.042,0,0,1,.626,2.512,5.042,5.042,0,0,1-.626,2.513,4.5,4.5,0,0,1-1.721,1.739,4.861,4.861,0,0,1-2.457.626A4.864,4.864,0,0,1,3032.823-1019.193Zm4.437-.718a3.7,3.7,0,0,0,1.38-1.436,4.28,4.28,0,0,0,.506-2.1,4.28,4.28,0,0,0-.506-2.1,3.706,3.706,0,0,0-1.38-1.436,3.825,3.825,0,0,0-1.979-.515,3.825,3.825,0,0,0-1.979.515,3.7,3.7,0,0,0-1.381,1.436,4.28,4.28,0,0,0-.506,2.1,4.28,4.28,0,0,0,.506,2.1,3.7,3.7,0,0,0,1.381,1.436,3.82,3.82,0,0,0,1.979.515A3.821,3.821,0,0,0,3037.259-1019.911Z" transform="translate(-3030.476 1028.323)"/>
          </g>
          <g id="Group_3799" data-name="Group 3799" transform="translate(99.21 3.976)">
            <path id="Path_25577" data-name="Path 25577" d="M3105.035-1027.274a4.085,4.085,0,0,1,1.049,3.019v5.614h-.92v-5.54a3.41,3.41,0,0,0-.819-2.466,3.04,3.04,0,0,0-2.291-.847,3.533,3.533,0,0,0-2.669,1.012,3.759,3.759,0,0,0-.976,2.724v5.117h-.92v-9.608h.884v2.08a3.654,3.654,0,0,1,1.482-1.583,4.567,4.567,0,0,1,2.328-.57A3.855,3.855,0,0,1,3105.035-1027.274Z" transform="translate(-3097.488 1028.323)"/>
          </g>
          <g id="Group_3800" data-name="Group 3800" transform="translate(114.744 1.951)">
            <path id="Path_25578" data-name="Path 25578" d="M3187.377-1028.112a2.309,2.309,0,0,1-.874.506,3.446,3.446,0,0,1-1.1.175,2.593,2.593,0,0,1-1.933-.69,2.621,2.621,0,0,1-.681-1.924v-6.277h-1.767v-.791h1.767v-2.1h.92v2.1h3.055v.791h-3.055v6.185a2.029,2.029,0,0,0,.451,1.427,1.728,1.728,0,0,0,1.334.488,2.135,2.135,0,0,0,1.491-.534Z" transform="translate(-3181.027 1039.211)"/>
          </g>
          <g id="Group_3801" data-name="Group 3801" transform="translate(123.653)">
            <path id="Path_25579" data-name="Path 25579" d="M3236.482-1044.679a4.086,4.086,0,0,1,1.049,3.019v5.614h-.921v-5.54a3.411,3.411,0,0,0-.819-2.467,3.041,3.041,0,0,0-2.292-.847,3.533,3.533,0,0,0-2.669,1.012,3.759,3.759,0,0,0-.976,2.724v5.117h-.92V-1049.7h.92v6.056a3.529,3.529,0,0,1,1.472-1.537,4.66,4.66,0,0,1,2.3-.543A3.856,3.856,0,0,1,3236.482-1044.679Z" transform="translate(-3228.935 1049.704)"/>
          </g>
          <g id="Group_3802" data-name="Group 3802" transform="translate(135.01 3.976)">
            <path id="Path_25580" data-name="Path 25580" d="M3299.172-1023.224h-8.265a4.02,4.02,0,0,0,.571,2,3.65,3.65,0,0,0,1.445,1.353,4.34,4.34,0,0,0,2.052.479,4.4,4.4,0,0,0,1.74-.34,3.394,3.394,0,0,0,1.334-1l.534.608a4.1,4.1,0,0,1-1.574,1.159,5.163,5.163,0,0,1-2.052.405,5.164,5.164,0,0,1-2.559-.626,4.535,4.535,0,0,1-1.757-1.73,4.964,4.964,0,0,1-.635-2.522,5.223,5.223,0,0,1,.6-2.512,4.417,4.417,0,0,1,1.647-1.74,4.514,4.514,0,0,1,2.356-.626,4.514,4.514,0,0,1,2.347.616,4.384,4.384,0,0,1,1.638,1.721,5.172,5.172,0,0,1,.6,2.5Zm-6.387-3.838a3.441,3.441,0,0,0-1.3,1.27,4.134,4.134,0,0,0-.561,1.85h7.363a3.86,3.86,0,0,0-.552-1.841,3.6,3.6,0,0,0-1.307-1.27,3.624,3.624,0,0,0-1.822-.46A3.685,3.685,0,0,0,3292.785-1027.062Z" transform="translate(-3290.006 1028.323)"/>
          </g>
        </g>
        <g id="Group_3814" data-name="Group 3814" transform="translate(0 24.428)">
          <g id="Group_3804" data-name="Group 3804" transform="translate(0 0.984)">
            <path id="Path_25581" data-name="Path 25581" d="M2571.769-902.23h3.781v8.577a12.012,12.012,0,0,1-3.873,2.029,14.872,14.872,0,0,1-4.55.707,12.272,12.272,0,0,1-5.933-1.429,10.618,10.618,0,0,1-4.15-3.95,10.871,10.871,0,0,1-1.506-5.687,10.873,10.873,0,0,1,1.506-5.687,10.6,10.6,0,0,1,4.166-3.95,12.422,12.422,0,0,1,5.979-1.429,13.059,13.059,0,0,1,4.918.891,9.659,9.659,0,0,1,3.72,2.613l-2.521,2.459a8.087,8.087,0,0,0-5.933-2.459,8.387,8.387,0,0,0-4.042.953,6.945,6.945,0,0,0-2.767,2.674,7.691,7.691,0,0,0-1,3.935,7.57,7.57,0,0,0,1,3.873,7.155,7.155,0,0,0,2.767,2.705,8.1,8.1,0,0,0,4.012.984,8.655,8.655,0,0,0,4.426-1.107Z" transform="translate(-2555.538 913.051)"/>
          </g>
          <g id="Group_3805" data-name="Group 3805" transform="translate(23.547 6.21)">
            <path id="Path_25582" data-name="Path 25582" d="M2686.407-869.209a7.841,7.841,0,0,1-3.12-3,8.458,8.458,0,0,1-1.122-4.35,8.379,8.379,0,0,1,1.122-4.334,7.877,7.877,0,0,1,3.12-2.982,9.318,9.318,0,0,1,4.489-1.076,9.381,9.381,0,0,1,4.519,1.076,7.881,7.881,0,0,1,3.12,2.982,8.386,8.386,0,0,1,1.122,4.334,8.465,8.465,0,0,1-1.122,4.35,7.844,7.844,0,0,1-3.12,3,9.375,9.375,0,0,1-4.519,1.076A9.313,9.313,0,0,1,2686.407-869.209Zm7.993-3.627a5.091,5.091,0,0,0,1.383-3.72,5.091,5.091,0,0,0-1.383-3.719,4.7,4.7,0,0,0-3.5-1.414,4.646,4.646,0,0,0-3.489,1.414,5.122,5.122,0,0,0-1.368,3.719,5.122,5.122,0,0,0,1.368,3.72,4.644,4.644,0,0,0,3.489,1.414A4.7,4.7,0,0,0,2694.4-872.836Z" transform="translate(-2682.165 884.948)"/>
          </g>
          <g id="Group_3806" data-name="Group 3806" transform="translate(43.375 6.21)">
            <path id="Path_25583" data-name="Path 25583" d="M2793.032-869.209a7.837,7.837,0,0,1-3.12-3,8.458,8.458,0,0,1-1.122-4.35,8.379,8.379,0,0,1,1.122-4.334,7.874,7.874,0,0,1,3.12-2.982,9.312,9.312,0,0,1,4.488-1.076,9.383,9.383,0,0,1,4.519,1.076,7.884,7.884,0,0,1,3.12,2.982,8.389,8.389,0,0,1,1.122,4.334,8.468,8.468,0,0,1-1.122,4.35,7.847,7.847,0,0,1-3.12,3,9.377,9.377,0,0,1-4.519,1.076A9.306,9.306,0,0,1,2793.032-869.209Zm7.992-3.627a5.09,5.09,0,0,0,1.383-3.72,5.09,5.09,0,0,0-1.383-3.719,4.7,4.7,0,0,0-3.5-1.414,4.647,4.647,0,0,0-3.489,1.414,5.125,5.125,0,0,0-1.368,3.719,5.125,5.125,0,0,0,1.368,3.72,4.645,4.645,0,0,0,3.489,1.414A4.7,4.7,0,0,0,2801.024-872.836Z" transform="translate(-2788.79 884.948)"/>
          </g>
          <g id="Group_3807" data-name="Group 3807" transform="translate(63.202 6.21)">
            <path id="Path_25584" data-name="Path 25584" d="M2913.059-884.763v13.925q0,8.669-8.853,8.669a16.429,16.429,0,0,1-4.489-.6,9.52,9.52,0,0,1-3.5-1.737l1.721-2.89a8.226,8.226,0,0,0,2.72,1.429,10.67,10.67,0,0,0,3.335.538,5.507,5.507,0,0,0,3.966-1.229,5.027,5.027,0,0,0,1.26-3.75v-.861a6.315,6.315,0,0,1-2.4,1.629,8.452,8.452,0,0,1-3.1.553,8.9,8.9,0,0,1-4.227-1,7.5,7.5,0,0,1-2.981-2.813,7.888,7.888,0,0,1-1.092-4.15,7.809,7.809,0,0,1,1.092-4.135,7.43,7.43,0,0,1,2.981-2.782,9.018,9.018,0,0,1,4.227-.984,8.67,8.67,0,0,1,3.243.584,5.985,5.985,0,0,1,2.444,1.783v-2.182Zm-5.18,11.113a4.435,4.435,0,0,0,1.4-3.4,4.352,4.352,0,0,0-1.4-3.351,5.074,5.074,0,0,0-3.581-1.291,5.114,5.114,0,0,0-3.612,1.291,4.349,4.349,0,0,0-1.4,3.351,4.433,4.433,0,0,0,1.4,3.4,5.077,5.077,0,0,0,3.612,1.307A5.037,5.037,0,0,0,2907.879-873.651Z" transform="translate(-2895.414 884.948)"/>
          </g>
          <g id="Group_3808" data-name="Group 3808" transform="translate(85.888)">
            <path id="Path_25585" data-name="Path 25585" d="M3017.411-918.341h3.843v22.81h-3.843Z" transform="translate(-3017.411 918.341)"/>
          </g>
          <g id="Group_3809" data-name="Group 3809" transform="translate(93.419 6.21)">
            <path id="Path_25586" data-name="Path 25586" d="M3074.634-875.326h-12.88a4.463,4.463,0,0,0,1.767,2.874,5.8,5.8,0,0,0,3.551,1.06,5.984,5.984,0,0,0,4.458-1.783l2.059,2.367a6.94,6.94,0,0,1-2.8,2,10.189,10.189,0,0,1-3.812.676,10.139,10.139,0,0,1-4.765-1.076,7.744,7.744,0,0,1-3.182-3,8.458,8.458,0,0,1-1.122-4.35,8.592,8.592,0,0,1,1.091-4.319,7.747,7.747,0,0,1,3.028-3,8.836,8.836,0,0,1,4.365-1.076,8.614,8.614,0,0,1,4.288,1.061,7.512,7.512,0,0,1,2.951,2.982,9.041,9.041,0,0,1,1.061,4.442Q3074.7-876.064,3074.634-875.326Zm-11.358-5.457a4.587,4.587,0,0,0-1.552,2.905h9.314a4.532,4.532,0,0,0-1.507-2.89,4.582,4.582,0,0,0-3.135-1.107A4.634,4.634,0,0,0,3063.275-880.783Z" transform="translate(-3057.911 884.948)"/>
          </g>
          <g id="Group_3810" data-name="Group 3810" transform="translate(122.745 1.291)">
            <path id="Path_25587" data-name="Path 25587" d="M3229.342-910.476a7.086,7.086,0,0,1,3.182,2.644,7.4,7.4,0,0,1,1.107,4.089,7.417,7.417,0,0,1-1.107,4.073,7.049,7.049,0,0,1-3.182,2.659,11.914,11.914,0,0,1-4.873.922h-4.857v6.21h-4V-911.4h8.853A11.914,11.914,0,0,1,3229.342-910.476Zm-1.092,9.9a3.857,3.857,0,0,0,1.353-3.166,3.858,3.858,0,0,0-1.353-3.166,6.137,6.137,0,0,0-3.965-1.107h-4.673v8.546h4.673A6.138,6.138,0,0,0,3228.25-900.577Z" transform="translate(-3215.616 911.398)"/>
          </g>
          <g id="Group_3811" data-name="Group 3811" transform="translate(144.694)">
            <path id="Path_25588" data-name="Path 25588" d="M3333.647-918.341h3.843v22.81h-3.843Z" transform="translate(-3333.647 918.341)"/>
          </g>
          <g id="Group_3812" data-name="Group 3812" transform="translate(152.409 6.21)">
            <path id="Path_25589" data-name="Path 25589" d="M3388.126-883.211a6.713,6.713,0,0,1,1.922,5.241v9.622h-3.628v-2a4.467,4.467,0,0,1-2.014,1.645,7.869,7.869,0,0,1-3.151.569,7.722,7.722,0,0,1-3.228-.63,4.983,4.983,0,0,1-2.136-1.752,4.443,4.443,0,0,1-.753-2.536,4.346,4.346,0,0,1,1.644-3.551q1.644-1.337,5.18-1.337h4.242v-.246a3.364,3.364,0,0,0-1.03-2.644,4.455,4.455,0,0,0-3.059-.922,8.831,8.831,0,0,0-2.721.43,6.693,6.693,0,0,0-2.259,1.2l-1.506-2.8a9.337,9.337,0,0,1,3.1-1.506,13.823,13.823,0,0,1,3.843-.523A8.006,8.006,0,0,1,3388.126-883.211Zm-3.5,11.62a3.6,3.6,0,0,0,1.583-1.89v-1.906h-3.966q-3.32,0-3.32,2.182a1.96,1.96,0,0,0,.83,1.66,3.8,3.8,0,0,0,2.306.615A4.96,4.96,0,0,0,3384.622-871.591Z" transform="translate(-3375.139 884.948)"/>
          </g>
          <g id="Group_3813" data-name="Group 3813" transform="translate(168.886 6.394)">
            <path id="Path_25590" data-name="Path 25590" d="M3482.16-883.956l-7.685,17.737a8.26,8.26,0,0,1-2.613,3.766,6.26,6.26,0,0,1-3.719,1.091,7.644,7.644,0,0,1-2.429-.4,5.366,5.366,0,0,1-1.967-1.107l1.537-2.828a4.18,4.18,0,0,0,1.306.83,4,4,0,0,0,1.522.307,2.62,2.62,0,0,0,1.675-.523,4.633,4.633,0,0,0,1.214-1.752l.276-.646-7.163-16.477h4l5.164,12.143,5.2-12.143Z" transform="translate(-3463.746 883.956)"/>
          </g>
        </g>
      </g>
      <g id="Group_3824" data-name="Group 3824" transform="translate(15.187 13.872)">
        <g id="Group_3817" data-name="Group 3817" transform="translate(31.226 20.34)">
          <g id="Group_3816" data-name="Group 3816">
            <path id="Path_25591" data-name="Path 25591" d="M2433.416-932.754l-10.33-5.961-8.5,8.213,7.764,7.505,11.061-6.385a1.926,1.926,0,0,0,.973-1.685A1.931,1.931,0,0,0,2433.416-932.754Z" transform="translate(-2414.59 938.715)" fill="#fec900"/>
          </g>
        </g>
        <g id="Group_3819" data-name="Group 3819" transform="translate(1.689)">
          <g id="Group_3818" data-name="Group 3818">
            <path id="Path_25592" data-name="Path 25592" d="M2292.031-1028.771l-11.368-6.562-24.912-12.766,28.137,27.2Z" transform="translate(-2255.752 1048.099)" fill="#00f075"/>
          </g>
        </g>
        <g id="Group_3821" data-name="Group 3821" transform="translate(2.102 29.907)">
          <g id="Group_3820" data-name="Group 3820">
            <path id="Path_25593" data-name="Path 25593" d="M2257.975-860.472l24.541-13.519,10.594-6.115-7.411-7.164Z" transform="translate(-2257.975 887.271)" fill="#f93647"/>
          </g>
        </g>
        <g id="Group_3823" data-name="Group 3823" transform="translate(0 1.101)">
          <g id="Group_3822" data-name="Group 3822">
            <path id="Path_25594" data-name="Path 25594" d="M2246.7-1042.181l-.027,54.93,28.426-27.478Z" transform="translate(-2246.669 1042.181)" fill="#01d4ff"/>
          </g>
        </g>
      </g>
    </g>
  </g>
</svg>
