<svg xmlns="http://www.w3.org/2000/svg" width="26.056" height="26.056" viewBox="0 0 26.056 26.056">
  <path id="Icon_awesome-twitter-square" data-name="Icon awesome-twitter-square" d="M23.265,2.25H2.792A2.792,2.792,0,0,0,0,5.042V25.515a2.792,2.792,0,0,0,2.792,2.792H23.265a2.792,2.792,0,0,0,2.792-2.792V5.042A2.792,2.792,0,0,0,23.265,2.25ZM20.42,11.486c.012.163.012.332.012.494A10.779,10.779,0,0,1,9.579,22.833a10.8,10.8,0,0,1-5.857-1.71,8.037,8.037,0,0,0,.919.047,7.648,7.648,0,0,0,4.734-1.629A3.82,3.82,0,0,1,5.81,16.9a4.111,4.111,0,0,0,1.722-.07A3.815,3.815,0,0,1,4.478,13.08v-.047a3.812,3.812,0,0,0,1.722.483A3.806,3.806,0,0,1,4.5,10.34a3.767,3.767,0,0,1,.518-1.925,10.831,10.831,0,0,0,7.863,3.99,3.823,3.823,0,0,1,6.508-3.484A7.475,7.475,0,0,0,21.811,8a3.8,3.8,0,0,1-1.675,2.1,7.591,7.591,0,0,0,2.2-.593A8.029,8.029,0,0,1,20.42,11.486Z" transform="translate(0 -2.25)" fill="#8b3e89"/>
</svg>
